<svg width="91" height="91" viewBox="0 0 91 91" fill="none" xmlns="http://www.w3.org/2000/svg">
<path d="M90.0715 80.6197H87.6889V19.5375C87.6889 19.0246 87.2732 18.6089 86.7603 18.6089H4.05433C3.54148 18.6089 3.12576 19.0246 3.12576 19.5375V80.6197H0.928571C0.415721 80.6197 0 81.0356 0 81.5483V84.0539C0 84.5666 0.415721 84.9825 0.928571 84.9825H90.0714C90.5843 84.9825 91 84.5666 91 84.0539V81.5483C91.0001 81.0354 90.5843 80.6197 90.0715 80.6197ZM11.2603 74.117C11.2603 74.6297 10.8446 75.0456 10.3318 75.0456H6.57577C6.06292 75.0456 5.6472 74.6297 5.6472 74.117V70.361C5.6472 69.8482 6.06292 69.4325 6.57577 69.4325H10.3318C10.8446 69.4325 11.2603 69.8482 11.2603 70.361V74.117ZM11.2603 66.1648C11.2603 66.6777 10.8446 67.0934 10.3318 67.0934H6.57577C6.06292 67.0934 5.6472 66.6777 5.6472 66.1648V62.4089C5.6472 61.896 6.06292 61.4803 6.57577 61.4803H10.3318C10.8446 61.4803 11.2603 61.896 11.2603 62.4089V66.1648ZM11.2603 58.2128C11.2603 58.7257 10.8446 59.1414 10.3318 59.1414H6.57577C6.06292 59.1414 5.6472 58.7257 5.6472 58.2128V54.4568C5.6472 53.944 6.06292 53.5283 6.57577 53.5283H10.3318C10.8446 53.5283 11.2603 53.944 11.2603 54.4568V58.2128ZM11.2603 50.261C11.2603 50.7737 10.8446 51.1896 10.3318 51.1896H6.57577C6.06292 51.1896 5.6472 50.7737 5.6472 50.261V46.5048C5.6472 45.992 6.06292 45.5763 6.57577 45.5763H10.3318C10.8446 45.5763 11.2603 45.992 11.2603 46.5048V50.261ZM11.2603 42.3089C11.2603 42.8217 10.8446 43.2375 10.3318 43.2375H6.57577C6.06292 43.2375 5.6472 42.8217 5.6472 42.3089V38.5529C5.6472 38.0401 6.06292 37.6244 6.57577 37.6244H10.3318C10.8446 37.6244 11.2603 38.0401 11.2603 38.5529V42.3089ZM11.2603 34.357C11.2603 34.8698 10.8446 35.2856 10.3318 35.2856H6.57577C6.06292 35.2856 5.6472 34.8698 5.6472 34.357V30.601C5.6472 30.0882 6.06292 29.6724 6.57577 29.6724H10.3318C10.8446 29.6724 11.2603 30.0882 11.2603 30.601V34.357ZM11.2603 26.405C11.2603 26.9178 10.8446 27.3336 10.3318 27.3336H6.57577C6.06292 27.3336 5.6472 26.9178 5.6472 26.405V22.6489C5.6472 22.1361 6.06292 21.7203 6.57577 21.7203H10.3318C10.8446 21.7203 11.2603 22.1361 11.2603 22.6489V26.405ZM19.493 74.117C19.493 74.6297 19.0773 75.0456 18.5645 75.0456H14.8084C14.2955 75.0456 13.8798 74.6297 13.8798 74.117V70.361C13.8798 69.8482 14.2955 69.4325 14.8084 69.4325H18.5645C19.0773 69.4325 19.493 69.8482 19.493 70.361V74.117ZM19.493 66.1648C19.493 66.6777 19.0773 67.0934 18.5645 67.0934H14.8084C14.2955 67.0934 13.8798 66.6777 13.8798 66.1648V62.4089C13.8798 61.896 14.2955 61.4803 14.8084 61.4803H18.5645C19.0773 61.4803 19.493 61.896 19.493 62.4089V66.1648ZM19.493 58.2128C19.493 58.7257 19.0773 59.1414 18.5645 59.1414H14.8084C14.2955 59.1414 13.8798 58.7257 13.8798 58.2128V54.4568C13.8798 53.944 14.2955 53.5283 14.8084 53.5283H18.5645C19.0773 53.5283 19.493 53.944 19.493 54.4568V58.2128ZM19.493 50.261C19.493 50.7737 19.0773 51.1896 18.5645 51.1896H14.8084C14.2955 51.1896 13.8798 50.7737 13.8798 50.261V46.5048C13.8798 45.992 14.2955 45.5763 14.8084 45.5763H18.5645C19.0773 45.5763 19.493 45.992 19.493 46.5048V50.261ZM19.493 42.3089C19.493 42.8217 19.0773 43.2375 18.5645 43.2375H14.8084C14.2955 43.2375 13.8798 42.8217 13.8798 42.3089V38.5529C13.8798 38.0401 14.2955 37.6244 14.8084 37.6244H18.5645C19.0773 37.6244 19.493 38.0401 19.493 38.5529V42.3089ZM19.493 34.357C19.493 34.8698 19.0773 35.2856 18.5645 35.2856H14.8084C14.2955 35.2856 13.8798 34.8698 13.8798 34.357V30.601C13.8798 30.0882 14.2955 29.6724 14.8084 29.6724H18.5645C19.0773 29.6724 19.493 30.0882 19.493 30.601V34.357ZM19.493 26.405C19.493 26.9178 19.0773 27.3336 18.5645 27.3336H14.8084C14.2955 27.3336 13.8798 26.9178 13.8798 26.405V22.6489C13.8798 22.1361 14.2955 21.7203 14.8084 21.7203H18.5645C19.0773 21.7203 19.493 22.1361 19.493 22.6489V26.405ZM27.7257 74.117C27.7257 74.6297 27.3099 75.0456 26.7971 75.0456H23.0411C22.5283 75.0456 22.1125 74.6297 22.1125 74.117V70.361C22.1125 69.8482 22.5283 69.4325 23.0411 69.4325H26.7971C27.3099 69.4325 27.7257 69.8482 27.7257 70.361V74.117ZM27.7257 66.1648C27.7257 66.6777 27.3099 67.0934 26.7971 67.0934H23.0411C22.5283 67.0934 22.1125 66.6777 22.1125 66.1648V62.4089C22.1125 61.896 22.5283 61.4803 23.0411 61.4803H26.7971C27.3099 61.4803 27.7257 61.896 27.7257 62.4089V66.1648ZM27.7257 58.2128C27.7257 58.7257 27.3099 59.1414 26.7971 59.1414H23.0411C22.5283 59.1414 22.1125 58.7257 22.1125 58.2128V54.4568C22.1125 53.944 22.5283 53.5283 23.0411 53.5283H26.7971C27.3099 53.5283 27.7257 53.944 27.7257 54.4568V58.2128ZM27.7257 50.261C27.7257 50.7737 27.3099 51.1896 26.7971 51.1896H23.0411C22.5283 51.1896 22.1125 50.7737 22.1125 50.261V46.5048C22.1125 45.992 22.5283 45.5763 23.0411 45.5763H26.7971C27.3099 45.5763 27.7257 45.992 27.7257 46.5048V50.261ZM27.7257 42.3089C27.7257 42.8217 27.3099 43.2375 26.7971 43.2375H23.0411C22.5283 43.2375 22.1125 42.8217 22.1125 42.3089V38.5529C22.1125 38.0401 22.5283 37.6244 23.0411 37.6244H26.7971C27.3099 37.6244 27.7257 38.0401 27.7257 38.5529V42.3089ZM27.7257 34.357C27.7257 34.8698 27.3099 35.2856 26.7971 35.2856H23.0411C22.5283 35.2856 22.1125 34.8698 22.1125 34.357V30.601C22.1125 30.0882 22.5283 29.6724 23.0411 29.6724H26.7971C27.3099 29.6724 27.7257 30.0882 27.7257 30.601V34.357ZM27.7257 26.405C27.7257 26.9178 27.3099 27.3336 26.7971 27.3336H23.0411C22.5283 27.3336 22.1125 26.9178 22.1125 26.405V22.6489C22.1125 22.1361 22.5283 21.7203 23.0411 21.7203H26.7971C27.3099 21.7203 27.7257 22.1361 27.7257 22.6489V26.405ZM35.9583 74.117C35.9583 74.6297 35.5425 75.0456 35.0297 75.0456H31.2737C30.7609 75.0456 30.3452 74.6297 30.3452 74.117V70.361C30.3452 69.8482 30.7609 69.4325 31.2737 69.4325H35.0297C35.5425 69.4325 35.9583 69.8482 35.9583 70.361V74.117ZM35.9583 66.1648C35.9583 66.6777 35.5425 67.0934 35.0297 67.0934H31.2737C30.7609 67.0934 30.3452 66.6777 30.3452 66.1648V62.4089C30.3452 61.896 30.7609 61.4803 31.2737 61.4803H35.0297C35.5425 61.4803 35.9583 61.896 35.9583 62.4089V66.1648ZM35.9583 58.2128C35.9583 58.7257 35.5425 59.1414 35.0297 59.1414H31.2737C30.7609 59.1414 30.3452 58.7257 30.3452 58.2128V54.4568C30.3452 53.944 30.7609 53.5283 31.2737 53.5283H35.0297C35.5425 53.5283 35.9583 53.944 35.9583 54.4568V58.2128ZM35.9583 50.261C35.9583 50.7737 35.5425 51.1896 35.0297 51.1896H31.2737C30.7609 51.1896 30.3452 50.7737 30.3452 50.261V46.5048C30.3452 45.992 30.7609 45.5763 31.2737 45.5763H35.0297C35.5425 45.5763 35.9583 45.992 35.9583 46.5048V50.261ZM35.9583 42.3089C35.9583 42.8217 35.5425 43.2375 35.0297 43.2375H31.2737C30.7609 43.2375 30.3452 42.8217 30.3452 42.3089V38.5529C30.3452 38.0401 30.7609 37.6244 31.2737 37.6244H35.0297C35.5425 37.6244 35.9583 38.0401 35.9583 38.5529V42.3089ZM35.9583 34.357C35.9583 34.8698 35.5425 35.2856 35.0297 35.2856H31.2737C30.7609 35.2856 30.3452 34.8698 30.3452 34.357V30.601C30.3452 30.0882 30.7609 29.6724 31.2737 29.6724H35.0297C35.5425 29.6724 35.9583 30.0882 35.9583 30.601V34.357ZM35.9583 26.405C35.9583 26.9178 35.5425 27.3336 35.0297 27.3336H31.2737C30.7609 27.3336 30.3452 26.9178 30.3452 26.405V22.6489C30.3452 22.1361 30.7609 21.7203 31.2737 21.7203H35.0297C35.5425 21.7203 35.9583 22.1361 35.9583 22.6489V26.405ZM49.243 78.8888C49.243 79.4016 48.8273 79.8173 48.3144 79.8173H42.687C42.1741 79.8173 41.7584 79.4016 41.7584 78.8888V70.4538C41.7584 69.941 42.1741 69.5252 42.687 69.5252H48.3144C48.8273 69.5252 49.243 69.941 49.243 70.4538V78.8888ZM52.4236 66.1648C52.4236 66.6777 52.0079 67.0934 51.495 67.0934H39.5064C38.9935 67.0934 38.5778 66.6777 38.5778 66.1648V62.4089C38.5778 61.896 38.9935 61.4803 39.5064 61.4803H51.4949C52.0078 61.4803 52.4235 61.896 52.4235 62.4089V66.1648H52.4236ZM52.4236 58.2128C52.4236 58.7257 52.0079 59.1414 51.495 59.1414H39.5064C38.9935 59.1414 38.5778 58.7257 38.5778 58.2128V54.4568C38.5778 53.944 38.9935 53.5283 39.5064 53.5283H51.4949C52.0078 53.5283 52.4235 53.944 52.4235 54.4568V58.2128H52.4236ZM52.4236 50.261C52.4236 50.7737 52.0079 51.1896 51.495 51.1896H39.5064C38.9935 51.1896 38.5778 50.7737 38.5778 50.261V46.5048C38.5778 45.992 38.9935 45.5763 39.5064 45.5763H51.4949C52.0078 45.5763 52.4235 45.992 52.4235 46.5048V50.261H52.4236ZM52.4236 42.3089C52.4236 42.8217 52.0079 43.2375 51.495 43.2375H39.5064C38.9935 43.2375 38.5778 42.8217 38.5778 42.3089V38.5529C38.5778 38.0401 38.9935 37.6244 39.5064 37.6244H51.4949C52.0078 37.6244 52.4235 38.0401 52.4235 38.5529V42.3089H52.4236ZM52.4236 34.357C52.4236 34.8698 52.0079 35.2856 51.495 35.2856H39.5064C38.9935 35.2856 38.5778 34.8698 38.5778 34.357V30.601C38.5778 30.0882 38.9935 29.6724 39.5064 29.6724H51.4949C52.0078 29.6724 52.4235 30.0882 52.4235 30.601V34.357H52.4236ZM52.4236 26.405C52.4236 26.9178 52.0079 27.3336 51.495 27.3336H39.5064C38.9935 27.3336 38.5778 26.9178 38.5778 26.405V22.6489C38.5778 22.1361 38.9935 21.7203 39.5064 21.7203H51.4949C52.0078 21.7203 52.4235 22.1361 52.4235 22.6489V26.405H52.4236ZM60.6562 74.117C60.6562 74.6297 60.2405 75.0456 59.7277 75.0456H55.9717C55.4589 75.0456 55.0431 74.6297 55.0431 74.117V70.361C55.0431 69.8482 55.4589 69.4325 55.9717 69.4325H59.7277C60.2405 69.4325 60.6562 69.8482 60.6562 70.361V74.117ZM60.6562 66.1648C60.6562 66.6777 60.2405 67.0934 59.7277 67.0934H55.9717C55.4589 67.0934 55.0431 66.6777 55.0431 66.1648V62.4089C55.0431 61.896 55.4589 61.4803 55.9717 61.4803H59.7277C60.2405 61.4803 60.6562 61.896 60.6562 62.4089V66.1648ZM60.6562 58.2128C60.6562 58.7257 60.2405 59.1414 59.7277 59.1414H55.9717C55.4589 59.1414 55.0431 58.7257 55.0431 58.2128V54.4568C55.0431 53.944 55.4589 53.5283 55.9717 53.5283H59.7277C60.2405 53.5283 60.6562 53.944 60.6562 54.4568V58.2128ZM60.6562 50.261C60.6562 50.7737 60.2405 51.1896 59.7277 51.1896H55.9717C55.4589 51.1896 55.0431 50.7737 55.0431 50.261V46.5048C55.0431 45.992 55.4589 45.5763 55.9717 45.5763H59.7277C60.2405 45.5763 60.6562 45.992 60.6562 46.5048V50.261ZM60.6562 42.3089C60.6562 42.8217 60.2405 43.2375 59.7277 43.2375H55.9717C55.4589 43.2375 55.0431 42.8217 55.0431 42.3089V38.5529C55.0431 38.0401 55.4589 37.6244 55.9717 37.6244H59.7277C60.2405 37.6244 60.6562 38.0401 60.6562 38.5529V42.3089ZM60.6562 34.357C60.6562 34.8698 60.2405 35.2856 59.7277 35.2856H55.9717C55.4589 35.2856 55.0431 34.8698 55.0431 34.357V30.601C55.0431 30.0882 55.4589 29.6724 55.9717 29.6724H59.7277C60.2405 29.6724 60.6562 30.0882 60.6562 30.601V34.357ZM60.6562 26.405C60.6562 26.9178 60.2405 27.3336 59.7277 27.3336H55.9717C55.4589 27.3336 55.0431 26.9178 55.0431 26.405V22.6489C55.0431 22.1361 55.4589 21.7203 55.9717 21.7203H59.7277C60.2405 21.7203 60.6562 22.1361 60.6562 22.6489V26.405ZM68.8889 74.117C68.8889 74.6297 68.4731 75.0456 67.9603 75.0456H64.2043C63.6916 75.0456 63.2757 74.6297 63.2757 74.117V70.361C63.2757 69.8482 63.6916 69.4325 64.2043 69.4325H67.9603C68.4731 69.4325 68.8889 69.8482 68.8889 70.361V74.117ZM68.8889 66.1648C68.8889 66.6777 68.4731 67.0934 67.9603 67.0934H64.2043C63.6916 67.0934 63.2757 66.6777 63.2757 66.1648V62.4089C63.2757 61.896 63.6916 61.4803 64.2043 61.4803H67.9603C68.4731 61.4803 68.8889 61.896 68.8889 62.4089V66.1648ZM68.8889 58.2128C68.8889 58.7257 68.4731 59.1414 67.9603 59.1414H64.2043C63.6916 59.1414 63.2757 58.7257 63.2757 58.2128V54.4568C63.2757 53.944 63.6916 53.5283 64.2043 53.5283H67.9603C68.4731 53.5283 68.8889 53.944 68.8889 54.4568V58.2128ZM68.8889 50.261C68.8889 50.7737 68.4731 51.1896 67.9603 51.1896H64.2043C63.6916 51.1896 63.2757 50.7737 63.2757 50.261V46.5048C63.2757 45.992 63.6916 45.5763 64.2043 45.5763H67.9603C68.4731 45.5763 68.8889 45.992 68.8889 46.5048V50.261ZM68.8889 42.3089C68.8889 42.8217 68.4731 43.2375 67.9603 43.2375H64.2043C63.6916 43.2375 63.2757 42.8217 63.2757 42.3089V38.5529C63.2757 38.0401 63.6916 37.6244 64.2043 37.6244H67.9603C68.4731 37.6244 68.8889 38.0401 68.8889 38.5529V42.3089ZM68.8889 34.357C68.8889 34.8698 68.4731 35.2856 67.9603 35.2856H64.2043C63.6916 35.2856 63.2757 34.8698 63.2757 34.357V30.601C63.2757 30.0882 63.6916 29.6724 64.2043 29.6724H67.9603C68.4731 29.6724 68.8889 30.0882 68.8889 30.601V34.357ZM68.8889 26.405C68.8889 26.9178 68.4731 27.3336 67.9603 27.3336H64.2043C63.6916 27.3336 63.2757 26.9178 63.2757 26.405V22.6489C63.2757 22.1361 63.6916 21.7203 64.2043 21.7203H67.9603C68.4731 21.7203 68.8889 22.1361 68.8889 22.6489V26.405ZM77.1216 74.117C77.1216 74.6297 76.7058 75.0456 76.193 75.0456H72.437C71.9243 75.0456 71.5085 74.6297 71.5085 74.117V70.361C71.5085 69.8482 71.9243 69.4325 72.437 69.4325H76.193C76.7058 69.4325 77.1216 69.8482 77.1216 70.361V74.117ZM77.1216 66.1648C77.1216 66.6777 76.7058 67.0934 76.193 67.0934H72.437C71.9243 67.0934 71.5085 66.6777 71.5085 66.1648V62.4089C71.5085 61.896 71.9243 61.4803 72.437 61.4803H76.193C76.7058 61.4803 77.1216 61.896 77.1216 62.4089V66.1648ZM77.1216 58.2128C77.1216 58.7257 76.7058 59.1414 76.193 59.1414H72.437C71.9243 59.1414 71.5085 58.7257 71.5085 58.2128V54.4568C71.5085 53.944 71.9243 53.5283 72.437 53.5283H76.193C76.7058 53.5283 77.1216 53.944 77.1216 54.4568V58.2128ZM77.1216 50.261C77.1216 50.7737 76.7058 51.1896 76.193 51.1896H72.437C71.9243 51.1896 71.5085 50.7737 71.5085 50.261V46.5048C71.5085 45.992 71.9243 45.5763 72.437 45.5763H76.193C76.7058 45.5763 77.1216 45.992 77.1216 46.5048V50.261ZM77.1216 42.3089C77.1216 42.8217 76.7058 43.2375 76.193 43.2375H72.437C71.9243 43.2375 71.5085 42.8217 71.5085 42.3089V38.5529C71.5085 38.0401 71.9243 37.6244 72.437 37.6244H76.193C76.7058 37.6244 77.1216 38.0401 77.1216 38.5529V42.3089ZM77.1216 34.357C77.1216 34.8698 76.7058 35.2856 76.193 35.2856H72.437C71.9243 35.2856 71.5085 34.8698 71.5085 34.357V30.601C71.5085 30.0882 71.9243 29.6724 72.437 29.6724H76.193C76.7058 29.6724 77.1216 30.0882 77.1216 30.601V34.357ZM77.1216 26.405C77.1216 26.9178 76.7058 27.3336 76.193 27.3336H72.437C71.9243 27.3336 71.5085 26.9178 71.5085 26.405V22.6489C71.5085 22.1361 71.9243 21.7203 72.437 21.7203H76.193C76.7058 21.7203 77.1216 22.1361 77.1216 22.6489V26.405ZM85.3542 74.117C85.3542 74.6297 84.9384 75.0456 84.4256 75.0456H80.6696C80.1568 75.0456 79.7411 74.6297 79.7411 74.117V70.361C79.7411 69.8482 80.1568 69.4325 80.6696 69.4325H84.4256C84.9384 69.4325 85.3542 69.8482 85.3542 70.361V74.117ZM85.3542 66.1648C85.3542 66.6777 84.9384 67.0934 84.4256 67.0934H80.6696C80.1568 67.0934 79.7411 66.6777 79.7411 66.1648V62.4089C79.7411 61.896 80.1568 61.4803 80.6696 61.4803H84.4256C84.9384 61.4803 85.3542 61.896 85.3542 62.4089V66.1648ZM85.3542 58.2128C85.3542 58.7257 84.9384 59.1414 84.4256 59.1414H80.6696C80.1568 59.1414 79.7411 58.7257 79.7411 58.2128V54.4568C79.7411 53.944 80.1568 53.5283 80.6696 53.5283H84.4256C84.9384 53.5283 85.3542 53.944 85.3542 54.4568V58.2128ZM85.3542 50.261C85.3542 50.7737 84.9384 51.1896 84.4256 51.1896H80.6696C80.1568 51.1896 79.7411 50.7737 79.7411 50.261V46.5048C79.7411 45.992 80.1568 45.5763 80.6696 45.5763H84.4256C84.9384 45.5763 85.3542 45.992 85.3542 46.5048V50.261ZM85.3542 42.3089C85.3542 42.8217 84.9384 43.2375 84.4256 43.2375H80.6696C80.1568 43.2375 79.7411 42.8217 79.7411 42.3089V38.5529C79.7411 38.0401 80.1568 37.6244 80.6696 37.6244H84.4256C84.9384 37.6244 85.3542 38.0401 85.3542 38.5529V42.3089ZM85.3542 34.357C85.3542 34.8698 84.9384 35.2856 84.4256 35.2856H80.6696C80.1568 35.2856 79.7411 34.8698 79.7411 34.357V30.601C79.7411 30.0882 80.1568 29.6724 80.6696 29.6724H84.4256C84.9384 29.6724 85.3542 30.0882 85.3542 30.601V34.357ZM85.3542 26.405C85.3542 26.9178 84.9384 27.3336 84.4256 27.3336H80.6696C80.1568 27.3336 79.7411 26.9178 79.7411 26.405V22.6489C79.7411 22.1361 80.1568 21.7203 80.6696 21.7203H84.4256C84.9384 21.7203 85.3542 22.1361 85.3542 22.6489V26.405Z" fill="#6D9EEB"/>
<path d="M1.77771 16.683H89.0373C89.4353 16.683 89.6488 16.215 89.3879 15.9144L85.8118 11.7939C85.6389 11.5391 85.3511 11.3864 85.0432 11.3864H78.9858C78.473 11.3864 78.0573 10.9707 78.0573 10.4578V6.94615C78.0573 6.4333 77.6414 6.01758 77.1287 6.01758H74.121C73.6083 6.01758 73.1925 6.4333 73.1925 6.94615V10.4578C73.1925 10.9707 72.7767 11.3864 72.2639 11.3864H18.7378C18.2249 11.3864 17.8092 10.9707 17.8092 10.4578V6.94615C17.8092 6.4333 17.3935 6.01758 16.8806 6.01758H13.873C13.3602 6.01758 12.9444 6.4333 12.9444 6.94615V10.4578C12.9444 10.9707 12.5287 11.3864 12.0159 11.3864H5.77177C5.46386 11.3864 5.176 11.5391 5.0032 11.7939L1.42708 15.9144C1.16615 16.215 1.37963 16.683 1.77771 16.683Z" fill="#6D9EEB"/>
</svg>
