<svg width="1469" height="366" viewBox="0 0 1469 366" fill="none" xmlns="http://www.w3.org/2000/svg">
<path d="M197.892 9.69298C197.892 4.2848 193.718 0 188.31 0H76.5009C71.0883 0 67.1055 4.2848 67.1055 9.69298V205H109.767V172.733C109.767 169.558 112.063 166.965 115.224 166.965H149.729C152.895 166.965 155.226 169.558 155.226 172.733V205H197.883V9.69298H197.892ZM124.611 138.574C124.611 140.426 123.114 141.927 121.258 141.927H101.06C99.2126 141.927 97.7074 140.426 97.7074 138.574V118.376C97.7074 116.524 99.2126 115.019 101.06 115.019H121.258C123.114 115.019 124.611 116.524 124.611 118.376V138.574ZM124.611 94.0436C124.611 95.8952 123.114 97.396 121.258 97.396H101.06C99.2126 97.396 97.7074 95.8952 97.7074 94.0436V73.8451C97.7074 71.9935 99.2126 70.4928 101.06 70.4928H121.258C123.114 70.4928 124.611 71.9935 124.611 73.8451V94.0436ZM124.611 48.5936C124.611 50.4452 123.114 51.946 121.258 51.946H101.06C99.2126 51.946 97.7074 50.4452 97.7074 48.5936V28.3951C97.7074 26.5436 99.2126 25.0428 101.06 25.0428H121.258C123.114 25.0428 124.611 26.5436 124.611 28.3951V48.5936ZM167.285 138.574C167.285 140.426 165.776 141.927 163.929 141.927H143.73C141.874 141.927 140.378 140.426 140.378 138.574V118.376C140.378 116.524 141.874 115.019 143.73 115.019H163.929C165.776 115.019 167.285 116.524 167.285 118.376V138.574ZM167.285 94.0436C167.285 95.8952 165.776 97.396 163.929 97.396H143.73C141.874 97.396 140.378 95.8952 140.378 94.0436V73.8451C140.378 71.9935 141.874 70.4928 143.73 70.4928H163.929C165.776 70.4928 167.285 71.9935 167.285 73.8451V94.0436ZM167.285 48.5936C167.285 50.4452 165.776 51.946 163.929 51.946H143.73C141.874 51.946 140.378 50.4452 140.378 48.5936V28.3951C140.378 26.5436 141.874 25.0428 143.73 25.0428H163.929C165.776 25.0428 167.285 26.5436 167.285 28.3951V48.5936Z" fill="#407BFF"/>
<path d="M3.936 290V256.88H20.064C25.44 256.88 28.128 259.568 28.128 264.944V270.416C28.128 274.416 26.64 276.912 23.664 277.904L29.088 288.56L28.272 290H22.32L16.464 278.48H10.848V290H3.936ZM10.848 272.24H19.776C20.736 272.24 21.216 271.76 21.216 270.8V264.56C21.216 263.6 20.736 263.12 19.776 263.12H10.848V272.24ZM34.197 282.224V272.432C34.197 267.248 36.789 264.656 41.973 264.656H48.213C53.397 264.656 55.989 267.248 55.989 272.432V279.776H40.821V282.704C40.821 283.728 41.333 284.24 42.357 284.24H55.029V287.84L52.149 290H41.973C36.789 290 34.197 287.408 34.197 282.224ZM40.821 274.688H49.365V271.952C49.365 270.928 48.853 270.416 47.829 270.416H42.357C41.333 270.416 40.821 270.928 40.821 271.952V274.688ZM61.6545 287.84V284.24H72.6945C73.7825 284.24 74.3265 283.632 74.3265 282.416C74.3265 281.168 73.8785 280.464 72.9825 280.304L67.7985 279.44C63.7025 278.736 61.6545 276.368 61.6545 272.336C61.6545 267.216 64.2465 264.656 69.4305 264.656H76.8705L79.7505 266.816V270.416H69.8145C68.7265 270.416 68.1825 271.024 68.1825 272.24C68.1825 273.52 68.6785 274.24 69.6705 274.4L74.8065 275.264C78.8705 275.936 80.9025 278.272 80.9025 282.272C80.9025 287.424 78.2945 290 73.0785 290H64.5345L61.6545 287.84ZM86.7495 260.48V254H93.6615V260.48H86.7495ZM86.8935 290V264.656H93.5175V290H86.8935ZM100.056 282.224V272.432C100.056 267.248 102.648 264.656 107.832 264.656H115.224V254.48H121.848V290H107.832C102.648 290 100.056 287.408 100.056 282.224ZM106.68 282.704C106.68 283.728 107.192 284.24 108.216 284.24H115.224V270.416H108.216C107.192 270.416 106.68 270.928 106.68 271.952V282.704ZM128.369 282.224V272.432C128.369 267.248 130.961 264.656 136.145 264.656H142.385C147.569 264.656 150.161 267.248 150.161 272.432V279.776H134.993V282.704C134.993 283.728 135.505 284.24 136.529 284.24H149.201V287.84L146.321 290H136.145C130.961 290 128.369 287.408 128.369 282.224ZM134.993 274.688H143.537V271.952C143.537 270.928 143.025 270.416 142.001 270.416H136.529C135.505 270.416 134.993 270.928 134.993 271.952V274.688ZM156.69 290V264.656H170.706C175.89 264.656 178.482 267.248 178.482 272.432V290H171.858V271.952C171.858 270.928 171.346 270.416 170.322 270.416H163.314V290H156.69ZM184.998 282.224V256.88H191.622V264.656H199.878V270.416H191.622V282.704C191.622 283.728 192.134 284.24 193.158 284.24H200.358V287.84L197.478 290H192.774C187.59 290 184.998 287.408 184.998 282.224ZM205.39 260.48V254H212.302V260.48H205.39ZM205.534 290V264.656H212.158V290H205.534ZM225.513 290C220.329 290 217.737 287.456 217.737 282.368C217.737 277.28 220.329 274.736 225.513 274.736H232.137V271.952C232.137 270.928 231.625 270.416 230.601 270.416H220.425V266.816L223.305 264.656H230.985C236.169 264.656 238.761 267.248 238.761 272.432V290H225.513ZM224.361 282.704C224.361 283.728 224.873 284.24 225.897 284.24H232.137V279.824H225.897C224.873 279.824 224.361 280.336 224.361 281.36V282.704ZM245.28 280.784V254.48H251.904V281.456C251.904 283.44 252.928 284.544 254.976 284.768V290.48C248.512 290.48 245.28 287.248 245.28 280.784ZM3.456 341.936V324.944C3.456 319.568 6.144 316.88 11.52 316.88H24.336L27.552 319.376V323.12H11.808C10.848 323.12 10.368 323.6 10.368 324.56V342.32C10.368 343.28 10.848 343.76 11.808 343.76H27.552V347.504L24.336 350H11.52C6.144 350 3.456 347.312 3.456 341.936ZM33.0251 342.224V332.432C33.0251 327.248 35.6171 324.656 40.8011 324.656H47.5211C52.7051 324.656 55.2971 327.248 55.2971 332.432V342.224C55.2971 347.408 52.7051 350 47.5211 350H40.8011C35.6171 350 33.0251 347.408 33.0251 342.224ZM39.6491 342.704C39.6491 343.728 40.1611 344.24 41.1851 344.24H47.1371C48.1611 344.24 48.6731 343.728 48.6731 342.704V331.952C48.6731 330.928 48.1611 330.416 47.1371 330.416H41.1851C40.1611 330.416 39.6491 330.928 39.6491 331.952V342.704ZM61.8154 350V324.656H90.7114C95.8954 324.656 98.4874 327.248 98.4874 332.432V350H91.8634V331.952C91.8634 330.928 91.3514 330.416 90.3274 330.416H83.4634V350H76.8394V330.416H68.4394V350H61.8154ZM105.222 350V324.656H134.118C139.302 324.656 141.894 327.248 141.894 332.432V350H135.27V331.952C135.27 330.928 134.758 330.416 133.734 330.416H126.87V350H120.246V330.416H111.846V350H105.222ZM148.436 342.224V324.656H155.06V342.704C155.06 343.728 155.572 344.24 156.596 344.24H163.604V324.656H170.228V350H156.212C151.028 350 148.436 347.408 148.436 342.224ZM177.128 350V324.656H191.144C196.328 324.656 198.92 327.248 198.92 332.432V350H192.296V331.952C192.296 330.928 191.784 330.416 190.76 330.416H183.752V350H177.128ZM205.484 320.48V314H212.396V320.48H205.484ZM205.628 350V324.656H212.252V350H205.628ZM218.983 342.224V316.88H225.607V324.656H233.863V330.416H225.607V342.704C225.607 343.728 226.119 344.24 227.143 344.24H234.343V347.84L231.463 350H226.759C221.575 350 218.983 347.408 218.983 342.224ZM236.927 325.664L237.599 324.656H243.311L249.167 344.24H249.647L255.503 324.656H261.215L261.887 325.664L251.279 359.6H245.567L244.895 358.592L247.775 350H244.559L236.927 325.664Z" fill="white"/>
<g clip-path="url(#clip0_408_695)">
<path d="M640 102.5H665.625L742.5 14.76L819.375 102.5H845L755.415 0H729.79L640 102.5ZM665.625 205H716.875V141.04C716.875 137.487 718.105 134.48 720.565 132.02C723.025 129.56 726.1 128.262 729.79 128.125H755.415C758.832 128.125 761.838 129.423 764.435 132.02C767.032 134.617 768.262 137.623 768.125 141.04V205H819.375V119.105L742.5 34.235L665.625 119.105V205ZM806.665 39.155L832.29 68.47V12.915H806.665V39.155Z" fill="#407BFF"/>
</g>
<g clip-path="url(#clip1_408_695)">
<path d="M855.157 178.667L824.181 164.408C823.176 163.945 822.106 163.711 821 163.711C819.894 163.711 818.824 163.945 817.819 164.408L786.843 178.667C786.331 178.903 786 179.419 786 179.983C786 180.547 786.331 181.062 786.843 181.299L817.819 195.558C818.824 196.021 819.894 196.255 821 196.255C822.106 196.255 823.176 196.021 824.181 195.558L848.628 184.305V195.637C847.658 195.746 846.901 196.572 846.901 197.57C846.901 198.439 847.477 199.192 848.297 199.431L846.643 210.34H854.255L852.602 199.431C853.422 199.192 853.997 198.439 853.997 197.57C853.997 196.572 853.241 195.746 852.271 195.637V182.628L855.158 181.299C855.67 181.062 856 180.547 856 179.983C856 179.419 855.669 178.903 855.157 178.667Z" fill="#E9E9E9"/>
<path d="M821.001 201.418C819.463 201.418 817.974 201.092 816.573 200.447L801.422 193.472V207.368C801.422 210.419 810.64 214.289 821.001 214.289C831.362 214.289 840.58 210.419 840.58 207.368V193.472L825.428 200.447C824.029 201.092 822.539 201.418 821.001 201.418Z" fill="#E9E9E9"/>
</g>
<path d="M647.496 287.504V283.76H662.376C663.336 283.76 663.816 283.28 663.816 282.32V278.864C663.816 277.936 663.416 277.408 662.616 277.28L653.256 275.36C649.416 274.592 647.496 272.016 647.496 267.632V264.944C647.496 259.568 650.184 256.88 655.56 256.88H666.552L669.768 259.376V263.12H655.848C654.888 263.12 654.408 263.6 654.408 264.56V267.68C654.408 268.576 654.808 269.104 655.608 269.264L664.968 271.136C668.808 271.904 670.728 274.48 670.728 278.864V281.936C670.728 287.312 668.04 290 662.664 290H650.712L647.496 287.504ZM676.483 282.224V256.88H683.107V264.656H691.363V270.416H683.107V282.704C683.107 283.728 683.619 284.24 684.643 284.24H691.843V287.84L688.963 290H684.259C679.075 290 676.483 287.408 676.483 282.224ZM696.827 282.224V264.656H703.451V282.704C703.451 283.728 703.963 284.24 704.987 284.24H711.995V264.656H718.619V290H704.603C699.419 290 696.827 287.408 696.827 282.224ZM725.135 282.224V272.432C725.135 267.248 727.727 264.656 732.911 264.656H740.303V254.48H746.927V290H732.911C727.727 290 725.135 287.408 725.135 282.224ZM731.759 282.704C731.759 283.728 732.271 284.24 733.295 284.24H740.303V270.416H733.295C732.271 270.416 731.759 270.928 731.759 271.952V282.704ZM753.447 282.224V272.432C753.447 267.248 756.039 264.656 761.223 264.656H767.463C772.647 264.656 775.239 267.248 775.239 272.432V279.776H760.071V282.704C760.071 283.728 760.583 284.24 761.607 284.24H774.279V287.84L771.399 290H761.223C756.039 290 753.447 287.408 753.447 282.224ZM760.071 274.688H768.615V271.952C768.615 270.928 768.103 270.416 767.079 270.416H761.607C760.583 270.416 760.071 270.928 760.071 271.952V274.688ZM781.769 290V264.656H795.785C800.969 264.656 803.561 267.248 803.561 272.432V290H796.937V271.952C796.937 270.928 796.425 270.416 795.401 270.416H788.393V290H781.769ZM810.077 282.224V256.88H816.701V264.656H824.957V270.416H816.701V282.704C816.701 283.728 817.213 284.24 818.237 284.24H825.437V287.84L822.557 290H817.853C812.669 290 810.077 287.408 810.077 282.224ZM648.936 350V316.88H655.848V329.84H668.136V316.88H675.048V350H668.136V336.08H655.848V350H648.936ZM682.056 342.224V332.432C682.056 327.248 684.648 324.656 689.832 324.656H696.552C701.736 324.656 704.328 327.248 704.328 332.432V342.224C704.328 347.408 701.736 350 696.552 350H689.832C684.648 350 682.056 347.408 682.056 342.224ZM688.68 342.704C688.68 343.728 689.192 344.24 690.216 344.24H696.168C697.192 344.24 697.704 343.728 697.704 342.704V331.952C697.704 330.928 697.192 330.416 696.168 330.416H690.216C689.192 330.416 688.68 330.928 688.68 331.952V342.704ZM710.655 342.224V324.656H717.279V342.704C717.279 343.728 717.791 344.24 718.815 344.24H725.823V324.656H732.447V350H718.431C713.247 350 710.655 347.408 710.655 342.224ZM738.483 347.84V344.24H749.523C750.611 344.24 751.155 343.632 751.155 342.416C751.155 341.168 750.707 340.464 749.811 340.304L744.627 339.44C740.531 338.736 738.483 336.368 738.483 332.336C738.483 327.216 741.075 324.656 746.259 324.656H753.699L756.579 326.816V330.416H746.643C745.555 330.416 745.011 331.024 745.011 332.24C745.011 333.52 745.507 334.24 746.499 334.4L751.635 335.264C755.699 335.936 757.731 338.272 757.731 342.272C757.731 347.424 755.123 350 749.907 350H741.363L738.483 347.84ZM763.578 320.48V314H770.49V320.48H763.578ZM763.722 350V324.656H770.346V350H763.722ZM777.269 350V324.656H791.285C796.469 324.656 799.061 327.248 799.061 332.432V350H792.437V331.952C792.437 330.928 791.925 330.416 790.901 330.416H783.893V350H777.269ZM805.193 342.224V332.432C805.193 327.248 807.785 324.656 812.969 324.656H826.984V351.824C826.984 357.008 824.393 359.6 819.209 359.6H810.233L807.353 357.44V353.84H818.825C819.849 353.84 820.361 353.328 820.361 352.304V350H812.969C807.785 350 805.193 347.408 805.193 342.224ZM811.817 342.704C811.817 343.728 812.329 344.24 813.353 344.24H820.361V330.416H813.353C812.329 330.416 811.817 330.928 811.817 331.952V342.704Z" fill="white"/>
<path d="M1316.04 0L1311.41 9.56133L1300.9 10.8186L1308.89 17.8814L1306.79 28.7L1316.04 23.2947L1325.29 28.7L1323.19 17.8814L1331.18 10.8186L1320.66 9.56133L1316.04 0ZM1325.29 28.7H1306.79H1302.13C1289.96 28.7 1280.4 38.2562 1280.4 50.4332V184.5C1280.4 186.755 1282.25 188.6 1284.5 188.6H1354.2V147.6H1378.8V188.6H1448.5C1450.76 188.6 1452.6 186.755 1452.6 184.5V50.4332C1452.6 38.2562 1443.04 28.7 1430.87 28.7H1426.21H1407.71H1392.57H1374.07H1358.93H1340.43H1325.29ZM1340.43 28.7L1349.68 23.2947L1358.93 28.7L1356.83 17.8814L1364.82 10.8186L1354.3 9.56133L1349.68 0L1345.06 9.56133L1334.54 10.8186L1342.53 17.8814L1340.43 28.7ZM1374.07 28.7L1383.32 23.2947L1392.57 28.7L1390.47 17.8814L1398.46 10.8186L1387.95 9.56133L1383.32 0L1378.7 9.56133L1368.18 10.8186L1376.17 17.8814L1374.07 28.7ZM1407.71 28.7L1416.97 23.2947L1426.21 28.7L1424.11 17.8814L1432.1 10.8186L1421.59 9.56133L1416.97 0L1412.34 9.56133L1401.82 10.8186L1409.81 17.8814L1407.71 28.7ZM1305 49.2H1329.6V65.6H1305V49.2ZM1354.2 49.2H1378.8V65.6H1354.2V49.2ZM1403.4 49.2H1428V65.6H1403.4V49.2ZM1305 82H1329.6V98.4H1305V82ZM1354.2 82H1378.8V98.4H1354.2V82ZM1403.4 82H1428V98.4H1403.4V82ZM1305 114.8H1329.6V131.2H1305V114.8ZM1354.2 114.8H1378.8V131.2H1354.2V114.8ZM1403.4 114.8H1428V131.2H1403.4V114.8ZM1305 147.6H1329.6V164H1305V147.6ZM1403.4 147.6H1428V164H1403.4V147.6Z" fill="#407BFF"/>
<path d="M1291.94 290V256.88H1298.85V269.84H1311.14V256.88H1318.05V290H1311.14V276.08H1298.85V290H1291.94ZM1325.06 282.224V272.432C1325.06 267.248 1327.65 264.656 1332.83 264.656H1339.55C1344.74 264.656 1347.33 267.248 1347.33 272.432V282.224C1347.33 287.408 1344.74 290 1339.55 290H1332.83C1327.65 290 1325.06 287.408 1325.06 282.224ZM1331.68 282.704C1331.68 283.728 1332.19 284.24 1333.22 284.24H1339.17C1340.19 284.24 1340.7 283.728 1340.7 282.704V271.952C1340.7 270.928 1340.19 270.416 1339.17 270.416H1333.22C1332.19 270.416 1331.68 270.928 1331.68 271.952V282.704ZM1353.65 282.224V256.88H1360.28V264.656H1368.53V270.416H1360.28V282.704C1360.28 283.728 1360.79 284.24 1361.81 284.24H1369.01V287.84L1366.13 290H1361.43C1356.25 290 1353.65 287.408 1353.65 282.224ZM1373.81 282.224V272.432C1373.81 267.248 1376.4 264.656 1381.58 264.656H1387.82C1393.01 264.656 1395.6 267.248 1395.6 272.432V279.776H1380.43V282.704C1380.43 283.728 1380.94 284.24 1381.97 284.24H1394.64V287.84L1391.76 290H1381.58C1376.4 290 1373.81 287.408 1373.81 282.224ZM1380.43 274.688H1388.97V271.952C1388.97 270.928 1388.46 270.416 1387.44 270.416H1381.97C1380.94 270.416 1380.43 270.928 1380.43 271.952V274.688ZM1401.94 280.784V254.48H1408.56V281.456C1408.56 283.44 1409.58 284.544 1411.63 284.768V290.48C1405.17 290.48 1401.94 287.248 1401.94 280.784ZM1291.46 341.936V324.944C1291.46 319.568 1294.14 316.88 1299.52 316.88H1312.34L1315.55 319.376V323.12H1299.81C1298.85 323.12 1298.37 323.6 1298.37 324.56V342.32C1298.37 343.28 1298.85 343.76 1299.81 343.76H1315.55V347.504L1312.34 350H1299.52C1294.14 350 1291.46 347.312 1291.46 341.936ZM1321.41 350V314.48H1328.03V324.656H1335.43C1340.61 324.656 1343.2 327.248 1343.2 332.432V350H1336.58V331.952C1336.58 330.928 1336.07 330.416 1335.04 330.416H1328.03V350H1321.41ZM1356.34 350C1351.16 350 1348.57 347.456 1348.57 342.368C1348.57 337.28 1351.16 334.736 1356.34 334.736H1362.97V331.952C1362.97 330.928 1362.45 330.416 1361.43 330.416H1351.25V326.816L1354.13 324.656H1361.81C1367 324.656 1369.59 327.248 1369.59 332.432V350H1356.34ZM1355.19 342.704C1355.19 343.728 1355.7 344.24 1356.73 344.24H1362.97V339.824H1356.73C1355.7 339.824 1355.19 340.336 1355.19 341.36V342.704ZM1376.16 320.48V314H1383.07V320.48H1376.16ZM1376.3 350V324.656H1382.92V350H1376.3ZM1389.85 350V324.656H1403.86C1409.05 324.656 1411.64 327.248 1411.64 332.432V350H1405.01V331.952C1405.01 330.928 1404.5 330.416 1403.48 330.416H1396.47V350H1389.85ZM1417.48 347.84V344.24H1428.52C1429.61 344.24 1430.15 343.632 1430.15 342.416C1430.15 341.168 1429.71 340.464 1428.81 340.304L1423.63 339.44C1419.53 338.736 1417.48 336.368 1417.48 332.336C1417.48 327.216 1420.07 324.656 1425.26 324.656H1432.7L1435.58 326.816V330.416H1425.64C1424.55 330.416 1424.01 331.024 1424.01 332.24C1424.01 333.52 1424.51 334.24 1425.5 334.4L1430.63 335.264C1434.7 335.936 1436.73 338.272 1436.73 342.272C1436.73 347.424 1434.12 350 1428.91 350H1420.36L1417.48 347.84Z" fill="white"/>
<defs>
<clipPath id="clip0_408_695">
<rect width="205" height="205" fill="white" transform="translate(640)"/>
</clipPath>
<clipPath id="clip1_408_695">
<rect width="70" height="70" fill="white" transform="translate(786 154)"/>
</clipPath>
</defs>
</svg>
