<svg width="44" height="87" viewBox="0 0 44 87" fill="none" xmlns="http://www.w3.org/2000/svg">
<path d="M0.874001 71.64V67.704H28.522C32.874 67.704 35.05 65.528 35.05 61.176V54.744C35.05 51.096 33.418 48.952 30.154 48.312L11.434 44.568C4.394 43.224 0.874001 38.488 0.874001 30.36V26.616C0.874001 16.632 5.642 11.64 15.178 11.64H18.634V0.119997H25.354V11.64H36.874L41.194 15V18.936H15.466C11.114 18.936 8.938 21.112 8.938 25.464V30.936C8.938 34.584 10.57 36.728 13.834 37.368L32.554 41.112C39.594 42.584 43.114 47.32 43.114 55.32V60.024C43.114 70.008 38.346 75 28.81 75H25.354V86.52H18.634V75H5.194L0.874001 71.64Z" fill="#6D9EEB"/>
</svg>
