<svg width="50" height="50" viewBox="0 0 50 50" fill="none" xmlns="http://www.w3.org/2000/svg">
<path d="M37.3173 6.13464C40.423 6.13464 42.9407 8.65234 42.9407 11.7581V37.3191C42.9407 40.4248 40.423 42.9425 37.3173 42.9425H11.7562C8.65051 42.9425 6.13281 40.4248 6.13281 37.3191V11.7581C6.13281 8.65234 8.65051 6.13464 11.7562 6.13464H37.3173ZM37.3173 9.20197H11.7562C10.3445 9.20197 9.20014 10.3464 9.20014 11.7581V37.3191C9.20014 38.7308 10.3445 39.8752 11.7562 39.8752H37.3173C38.729 39.8752 39.8734 38.7308 39.8734 37.3191V11.7581C39.8734 10.3464 38.729 9.20197 37.3173 9.20197ZM20.447 29.5267L33.6767 16.297C34.2756 15.6981 35.2467 15.6981 35.8456 16.297C36.3901 16.8415 36.4396 17.6935 35.9941 18.2939L35.8456 18.466L21.5315 32.7801C20.987 33.3246 20.1349 33.3741 19.5345 32.9286L19.3625 32.7801L13.2279 26.6455C12.6289 26.0466 12.6289 25.0755 13.2279 24.4766C13.7724 23.9321 14.6244 23.8826 15.2248 24.3281L15.3968 24.4766L20.447 29.5267Z" fill="#1155CC"/>
</svg>
