<svg width="50" height="50" viewBox="0 0 50 50" fill="none" xmlns="http://www.w3.org/2000/svg">
<path d="M37.3173 6.13452C40.423 6.13452 42.9407 8.65222 42.9407 11.7579V37.319C42.9407 40.4247 40.423 42.9424 37.3173 42.9424H11.7562C8.65051 42.9424 6.13281 40.4247 6.13281 37.319V11.7579C6.13281 8.65222 8.65051 6.13452 11.7562 6.13452H37.3173ZM37.3173 9.20185H11.7562C10.3445 9.20185 9.20014 10.3463 9.20014 11.7579V37.319C9.20014 38.7307 10.3445 39.8751 11.7562 39.8751H37.3173C38.729 39.8751 39.8734 38.7307 39.8734 37.319V11.7579C39.8734 10.3463 38.729 9.20185 37.3173 9.20185ZM20.447 29.5266L33.6767 16.2969C34.2756 15.698 35.2467 15.698 35.8456 16.2969C36.3901 16.8414 36.4396 17.6934 35.9941 18.2938L35.8456 18.4658L21.5315 32.78C20.987 33.3245 20.1349 33.374 19.5345 32.9285L19.3625 32.78L13.2279 26.6454C12.6289 26.0464 12.6289 25.0754 13.2279 24.4764C13.7724 23.932 14.6244 23.8825 15.2248 24.3279L15.3968 24.4764L20.447 29.5266Z" fill="#717171"/>
</svg>
