<svg width="205" height="205" viewBox="0 0 205 205" fill="none" xmlns="http://www.w3.org/2000/svg">
<path d="M52.0352 0L47.4146 9.56133L36.9004 10.8186L44.8922 17.8814L42.7861 28.7L52.0352 23.2947L61.2922 28.7L59.1861 17.8814L67.1779 10.8186L56.6637 9.56133L52.0352 0ZM61.2922 28.7H42.7861H38.1336C25.9566 28.7 16.4004 38.2562 16.4004 50.4332V184.5C16.4004 186.755 18.2454 188.6 20.5004 188.6H90.2004V147.6H114.8V188.6H184.5C186.755 188.6 188.6 186.755 188.6 184.5V50.4332C188.6 38.2562 179.044 28.7 166.867 28.7H162.215H143.709H128.574H110.068H94.933H76.427H61.2922ZM76.427 28.7L85.676 23.2947L94.933 28.7L92.827 17.8814L100.819 10.8186L90.3045 9.56133L85.676 0L81.0555 9.56133L70.5412 10.8186L78.533 17.8814L76.427 28.7ZM110.068 28.7L119.325 23.2947L128.574 28.7L126.468 17.8814L134.46 10.8186L123.945 9.56133L119.325 0L114.696 9.56133L104.182 10.8186L112.174 17.8814L110.068 28.7ZM143.709 28.7L152.966 23.2947L162.215 28.7L160.109 17.8814L168.1 10.8186L157.586 9.56133L152.966 0L148.337 9.56133L137.823 10.8186L145.815 17.8814L143.709 28.7ZM41.0004 49.2H65.6004V65.6H41.0004V49.2ZM90.2004 49.2H114.8V65.6H90.2004V49.2ZM139.4 49.2H164V65.6H139.4V49.2ZM41.0004 82H65.6004V98.4H41.0004V82ZM90.2004 82H114.8V98.4H90.2004V82ZM139.4 82H164V98.4H139.4V82ZM41.0004 114.8H65.6004V131.2H41.0004V114.8ZM90.2004 114.8H114.8V131.2H90.2004V114.8ZM139.4 114.8H164V131.2H139.4V114.8ZM41.0004 147.6H65.6004V164H41.0004V147.6ZM139.4 147.6H164V164H139.4V147.6Z" fill="#407BFF"/>
</svg>
