<svg width="49" height="49" viewBox="0 0 49 49" fill="none" xmlns="http://www.w3.org/2000/svg">
<path d="M24.5 34.7083V22.4583" stroke="white" stroke-width="3.0625" stroke-linecap="round"/>
<path d="M24.5007 14.2917C25.6282 14.2917 26.5423 15.2058 26.5423 16.3333C26.5423 17.4609 25.6282 18.375 24.5007 18.375C23.3731 18.375 22.459 17.4609 22.459 16.3333C22.459 15.2058 23.3731 14.2917 24.5007 14.2917Z" fill="white"/>
<path d="M44.9173 24.5C44.9173 34.1244 44.9173 38.9368 41.9273 41.9266C38.9375 44.9166 34.1251 44.9166 24.5006 44.9166C14.8761 44.9166 10.0639 44.9166 7.07394 41.9266C4.08398 38.9368 4.08398 34.1244 4.08398 24.5C4.08398 14.8755 4.08398 10.0632 7.07394 7.07327C10.0639 4.08331 14.8761 4.08331 24.5006 4.08331C34.1251 4.08331 38.9375 4.08331 41.9273 7.07327C43.9155 9.06132 44.5817 11.855 44.8048 16.3333" stroke="white" stroke-width="3.0625" stroke-linecap="round"/>
</svg>
