<svg width="594" height="143" viewBox="0 0 594 143" fill="none" xmlns="http://www.w3.org/2000/svg">
<g clip-path="url(#clip0_0_1)">
<path d="M237.375 85.75C237.375 91.25 238.75 96.3333 241.5 101C244.333 105.667 248.083 109.375 252.75 112.125C257.5 114.875 262.625 116.25 268.125 116.25C273.792 116.25 278.917 115.125 283.5 112.875C288.083 110.625 291.667 107.5 294.25 103.5C296.917 99.5 298.292 95 298.375 90H302.875C302.875 95.75 301.333 101 298.25 105.75C295.25 110.417 291.083 114.125 285.75 116.875C280.5 119.542 274.625 120.875 268.125 120.875C261.792 120.875 255.917 119.292 250.5 116.125C245.083 112.958 240.792 108.708 237.625 103.375C234.458 97.9583 232.875 92.0833 232.875 85.75V65.25C232.875 58.9167 234.417 53.0833 237.5 47.75C240.667 42.3333 244.917 38.0417 250.25 34.875C255.667 31.7083 261.542 30.125 267.875 30.125C274.292 30.125 280.125 31.5 285.375 34.25C290.708 36.9167 294.917 40.625 298 45.375C301.083 50.0417 302.625 55.25 302.625 61H298.125C298.042 56 296.667 51.5 294 47.5C291.333 43.5 287.708 40.375 283.125 38.125C278.625 35.875 273.542 34.75 267.875 34.75C262.375 34.75 257.292 36.125 252.625 38.875C247.958 41.625 244.25 45.3333 241.5 50C238.75 54.6667 237.375 59.75 237.375 65.25V85.75ZM357.404 32H362.279L398.029 119H393.029L381.279 90.25H338.404L326.529 119H321.654L357.404 32ZM340.279 85.75H379.404L359.779 38L340.279 85.75ZM452.309 30.125C458.809 30.125 464.809 31.75 470.309 35C475.809 38.1667 480.142 42.5 483.309 48C486.559 53.5 488.184 59.5 488.184 66V85C488.184 91.5 486.559 97.5 483.309 103C480.142 108.5 475.809 112.875 470.309 116.125C464.809 119.292 458.809 120.875 452.309 120.875C445.809 120.875 439.809 119.292 434.309 116.125C428.809 112.875 424.434 108.5 421.184 103C418.017 97.5 416.434 91.5 416.434 85V66C416.434 59.5 418.017 53.5 421.184 48C424.434 42.5 428.809 38.1667 434.309 35C439.809 31.75 445.809 30.125 452.309 30.125ZM421.059 85C421.059 90.6667 422.434 95.9167 425.184 100.75C428.017 105.5 431.809 109.292 436.559 112.125C441.392 114.875 446.642 116.25 452.309 116.25C457.975 116.25 463.184 114.875 467.934 112.125C472.767 109.292 476.559 105.5 479.309 100.75C482.142 95.9167 483.559 90.6667 483.559 85V66C483.559 60.3333 482.142 55.125 479.309 50.375C476.559 45.5417 472.767 41.75 467.934 39C463.184 36.1667 457.975 34.75 452.309 34.75C446.642 34.75 441.392 36.1667 436.559 39C431.809 41.75 428.017 45.5417 425.184 50.375C422.434 55.125 421.059 60.3333 421.059 66V85ZM546.713 77.375C539.63 75.9583 533.838 74.4167 529.338 72.75C524.921 71 521.421 68.6667 518.838 65.75C516.338 62.75 515.088 58.9167 515.088 54.25C515.088 49.4167 516.338 45.1667 518.838 41.5C521.421 37.8333 525.005 35 529.588 33C534.255 31 539.63 30 545.713 30C551.546 30 556.88 31.25 561.713 33.75C566.63 36.1667 570.505 39.5833 573.338 44C576.171 48.4167 577.588 53.4583 577.588 59.125H572.963C572.963 54.2083 571.755 49.875 569.338 46.125C566.921 42.375 563.63 39.5 559.463 37.5C555.296 35.4167 550.671 34.375 545.588 34.375C541.088 34.375 536.88 35.0833 532.963 36.5C529.046 37.9167 525.838 40.0833 523.338 43C520.921 45.9167 519.713 49.5833 519.713 54C519.713 58 520.88 61.2083 523.213 63.625C525.546 65.9583 528.588 67.75 532.338 69C536.088 70.25 541.338 71.5833 548.088 73C554.921 74.4167 560.213 75.7917 563.963 77.125C567.796 78.375 571.005 80.5 573.588 83.5C576.255 86.5 577.588 90.7083 577.588 96.125C577.588 101.542 576.13 106.125 573.213 109.875C570.38 113.542 566.588 116.292 561.838 118.125C557.088 119.958 551.921 120.875 546.338 120.875C539.421 120.875 533.338 119.583 528.088 117C522.838 114.417 518.796 110.792 515.963 106.125C513.213 101.375 511.838 95.9583 511.838 89.875H516.463C516.463 95.2083 517.63 99.875 519.963 103.875C522.38 107.875 525.838 111 530.338 113.25C534.838 115.417 540.171 116.5 546.338 116.5C554.005 116.5 560.338 114.667 565.338 111C570.421 107.333 572.963 102.333 572.963 96C572.963 91.6667 571.88 88.3333 569.713 86C567.546 83.6667 564.796 82 561.463 81C558.213 79.9167 553.296 78.7083 546.713 77.375Z" fill="#6D9EEB"/>
</g>
<g clip-path="url(#clip1_0_1)">
<rect x="43.6543" width="138.579" height="138.579" rx="69.2894" fill="#6D9EEB"/>
<path d="M175.996 100.816C175.996 135.831 147.611 164.216 112.597 164.216C77.5818 164.216 49.1967 135.831 49.1967 100.816C43.6533 51.6206 86.2667 55.4315 112.596 50.9277C140.312 56.1244 197.476 65.8249 175.996 100.816Z" fill="white"/>
<path d="M46.1871 32.0777C43.1523 48.1791 44.218 56.6132 60.3194 59.648C85.1017 25.8271 96.5497 49.1867 99.5846 33.0853C102.619 16.9839 95.5309 16.4716 79.4294 13.4367C63.328 10.4019 49.222 15.9763 46.1871 32.0777Z" fill="white"/>
<path d="M179.698 32.0777C182.732 48.1791 181.667 56.6132 165.565 59.648C140.783 25.8271 129.335 49.1867 126.3 33.0853C123.265 16.9839 130.354 16.4716 146.455 13.4367C162.557 10.4019 176.663 15.9763 179.698 32.0777Z" fill="white"/>
<circle cx="197.475" cy="115.714" r="34.6447" fill="#6D9EEB"/>
<circle cx="28.4103" cy="117.099" r="34.6447" fill="#6D9EEB"/>
</g>
<path d="M55.7762 111.428C55.7762 132.71 38.9109 141.099 17.6286 141.099C-3.65371 141.099 0.28798 149.28 0.28798 127.998C0.28798 106.715 13.6856 96.3988 34.9679 96.3988C56.2502 96.3988 55.7762 90.1452 55.7762 111.428Z" fill="#6D9EEB"/>
<path d="M173.224 111.428C173.224 132.71 190.089 141.099 211.371 141.099C232.654 141.099 228.712 149.28 228.712 127.998C228.712 106.715 215.314 96.3988 194.032 96.3988C172.75 96.3988 173.224 90.1452 173.224 111.428Z" fill="#6D9EEB"/>
<defs>
<clipPath id="clip0_0_1">
<rect width="372.283" height="125" fill="white" transform="translate(221 6)"/>
</clipPath>
<clipPath id="clip1_0_1">
<rect x="43.6543" width="138.579" height="138.579" rx="69.2894" fill="white"/>
</clipPath>
</defs>
</svg>
