<svg width="61" height="61" viewBox="0 0 61 61" fill="none" xmlns="http://www.w3.org/2000/svg">
<path d="M49.5633 16.0125H38.1258C37.9236 16.0125 37.7296 15.9322 37.5866 15.7892C37.4436 15.6462 37.3633 15.4523 37.3633 15.25V3.81255C37.3633 3.61032 37.4436 3.41638 37.5866 3.27338C37.7296 3.13038 37.9236 3.05005 38.1258 3.05005C38.328 3.05005 38.522 3.13038 38.665 3.27338C38.8079 3.41638 38.8883 3.61032 38.8883 3.81255V14.4875H49.5633C49.7655 14.4875 49.9595 14.5679 50.1024 14.7109C50.2454 14.8539 50.3258 15.0478 50.3258 15.25C50.3258 15.4523 50.2454 15.6462 50.1024 15.7892C49.9595 15.9322 49.7655 16.0125 49.5633 16.0125Z" fill="#FF402F"/>
<path d="M49.5633 23.6116C49.3611 23.6116 49.1671 23.5313 49.0241 23.3883C48.8811 23.2453 48.8008 23.0514 48.8008 22.8491V15.5657L37.8101 4.57505H15.2508C14.4419 4.57505 13.6661 4.89639 13.0941 5.46837C12.5221 6.04036 12.2008 6.81614 12.2008 7.62505V22.596C12.2008 22.7982 12.1204 22.9921 11.9775 23.1351C11.8345 23.2781 11.6405 23.3585 11.4383 23.3585C11.2361 23.3585 11.0421 23.2781 10.8991 23.1351C10.7561 22.9921 10.6758 22.7982 10.6758 22.596V7.62505C10.6758 6.41168 11.1578 5.24802 12.0158 4.39004C12.8737 3.53206 14.0374 3.05005 15.2508 3.05005H38.1258C38.226 3.04987 38.3252 3.06944 38.4179 3.10765C38.5105 3.14585 38.5947 3.20194 38.6656 3.2727L50.1031 14.7102C50.1739 14.7811 50.23 14.8653 50.2682 14.958C50.3064 15.0506 50.326 15.1499 50.3258 15.2501V22.8491C50.3258 22.9493 50.3061 23.0484 50.2677 23.1409C50.2294 23.2334 50.1733 23.3175 50.1024 23.3883C50.0316 23.4591 49.9476 23.5153 49.8551 23.5536C49.7626 23.5919 49.6634 23.6116 49.5633 23.6116Z" fill="#FF402F"/>
<path d="M45.7508 57.95H15.2508C14.0374 57.95 12.8737 57.468 12.0158 56.6101C11.1578 55.7521 10.6758 54.5884 10.6758 53.375V41.9375C10.6758 41.7353 10.7561 41.5414 10.8991 41.3984C11.0421 41.2554 11.2361 41.175 11.4383 41.175C11.6405 41.175 11.8345 41.2554 11.9775 41.3984C12.1204 41.5414 12.2008 41.7353 12.2008 41.9375V53.375C12.2008 54.184 12.5221 54.9597 13.0941 55.5317C13.6661 56.1037 14.4419 56.425 15.2508 56.425H45.7508C46.5597 56.425 47.3355 56.1037 47.9075 55.5317C48.4794 54.9597 48.8008 54.184 48.8008 53.375V41.9375C48.8008 41.7353 48.8811 41.5414 49.0241 41.3984C49.1671 41.2554 49.3611 41.175 49.5633 41.175C49.7655 41.175 49.9595 41.2554 50.1024 41.3984C50.2454 41.5414 50.3258 41.7353 50.3258 41.9375V53.375C50.3258 54.5884 49.8438 55.7521 48.9858 56.6101C48.1278 57.468 46.9641 57.95 45.7508 57.95Z" fill="#FF402F"/>
<path d="M41.9383 42.7H19.0633C18.8611 42.7 18.6671 42.6197 18.5241 42.4767C18.3811 42.3337 18.3008 42.1398 18.3008 41.9375C18.3008 41.7353 18.3811 41.5414 18.5241 41.3984C18.6671 41.2554 18.8611 41.175 19.0633 41.175H41.9383C42.1405 41.175 42.3345 41.2554 42.4774 41.3984C42.6204 41.5414 42.7008 41.7353 42.7008 41.9375C42.7008 42.1398 42.6204 42.3337 42.4774 42.4767C42.3345 42.6197 42.1405 42.7 41.9383 42.7Z" fill="#FF402F"/>
<path d="M30.5008 50.325H19.0633C18.8611 50.325 18.6671 50.2447 18.5241 50.1017C18.3811 49.9587 18.3008 49.7648 18.3008 49.5625C18.3008 49.3603 18.3811 49.1664 18.5241 49.0234C18.6671 48.8804 18.8611 48.8 19.0633 48.8H30.5008C30.703 48.8 30.897 48.8804 31.0399 49.0234C31.1829 49.1664 31.2633 49.3603 31.2633 49.5625C31.2633 49.7648 31.1829 49.9587 31.0399 50.1017C30.897 50.2447 30.703 50.325 30.5008 50.325Z" fill="#FF402F"/>
<path d="M49.5633 42.7H11.4383C10.2249 42.7 9.06125 42.218 8.20327 41.36C7.34529 40.502 6.86328 39.3384 6.86328 38.125V26.4084C6.86328 25.1951 7.34529 24.0314 8.20327 23.1734C9.06125 22.3154 10.2249 21.8334 11.4383 21.8334H11.4688L49.5938 22.0866C50.801 22.0978 51.9552 22.5843 52.8061 23.4407C53.6571 24.2971 54.1363 25.4543 54.1398 26.6616V38.125C54.1398 38.7259 54.0214 39.321 53.7914 39.8761C53.5614 40.4313 53.2243 40.9357 52.7993 41.3606C52.3743 41.7854 51.8698 42.1224 51.3145 42.3522C50.7593 42.582 50.1642 42.7002 49.5633 42.7ZM11.4383 23.3584C10.6294 23.3584 9.85359 23.6798 9.28161 24.2518C8.70962 24.8237 8.38828 25.5995 8.38828 26.4084V38.125C8.38828 38.9339 8.70962 39.7097 9.28161 40.2817C9.85359 40.8537 10.6294 41.175 11.4383 41.175H49.5633C50.3722 41.175 51.148 40.8537 51.72 40.2817C52.2919 39.7097 52.6133 38.9339 52.6133 38.125V26.6616C52.6109 25.8566 52.2913 25.0849 51.7238 24.514C51.1563 23.943 50.3866 23.6188 49.5816 23.6116L11.4566 23.3584H11.4383Z" fill="#FF402F"/>
<path d="M22.112 35.99H20.6465V27.8587H23.9771C24.9267 27.8587 25.6307 28.0981 26.0892 28.577C26.5406 29.0512 26.7877 29.6838 26.7771 30.3385C26.7666 30.9931 26.4993 31.6174 26.0328 32.0769C25.5177 32.5446 24.8402 32.7925 24.1448 32.7677H22.112V35.99ZM22.112 31.5111H23.8459C24.2984 31.5111 24.644 31.3998 24.8829 31.1771C25.0023 31.0632 25.0959 30.9251 25.1575 30.772C25.219 30.6189 25.2471 30.4544 25.2398 30.2896C25.2454 29.9717 25.1266 29.6642 24.9089 29.4325C24.6882 29.1946 24.2902 29.0757 23.7148 29.0757H22.112V31.5111Z" fill="#FF402F"/>
<path d="M27.9082 35.99V27.8587H30.9125C32.0206 27.8587 32.9102 28.2506 33.5812 29.0345C34.2522 29.8183 34.5877 30.7842 34.5877 31.932C34.5877 33.0839 34.242 34.0472 33.5507 34.8219C32.8594 35.5966 31.8707 35.9859 30.5846 35.99H27.9082ZM29.4149 34.7929H30.6349C30.9497 34.797 31.2617 34.7332 31.5496 34.6058C31.8375 34.4785 32.0946 34.2905 32.3033 34.0548C32.7597 33.5627 32.988 32.8302 32.988 31.8573C33.0104 31.1382 32.8002 30.4312 32.3887 29.8412C32.2151 29.5824 31.9793 29.3713 31.7031 29.2272C31.4268 29.0831 31.1188 29.0105 30.8072 29.0162H29.4134L29.4149 34.7929Z" fill="#FF402F"/>
<path d="M37.4535 35.99H35.9453V27.8587H41.0861V29.1153H37.4535V31.3372H40.3129V32.5572H37.4535V35.99Z" fill="#FF402F"/>
</svg>
