<svg width="1789" height="322" viewBox="0 0 1789 322" fill="none" xmlns="http://www.w3.org/2000/svg">
<path d="M0 0H419L527.5 85.5L419 170H0V0Z" fill="url(#paint0_linear_408_696)"/>
<path d="M422 0H837.874L949 85.5L837.874 170H422L531.185 86L422 0Z" fill="url(#paint1_linear_408_696)"/>
<path d="M0 0H419L527.5 85.5L419 170H0V0Z" fill="url(#paint2_linear_408_696)"/>
<path d="M842 0H1257.87L1369 85.5L1257.87 170H842L951.185 86L842 0Z" fill="url(#paint3_linear_408_696)"/>
<path d="M1262 0H1677.87L1789 85.5L1677.87 170H1262L1371.19 86L1262 0Z" fill="url(#paint4_linear_408_696)"/>
<path d="M179.32 69.2V62.05H210.34V69.2H198.79V100H190.87V69.2H179.32ZM215.472 66.175V58.75H223.392V66.175H215.472ZM215.637 100V70.96H223.227V100H215.637ZM230.719 91.09V79.87C230.719 73.93 233.689 70.96 239.629 70.96H246.779C252.719 70.96 255.689 73.93 255.689 79.87V88.285H238.309V91.64C238.309 92.8133 238.896 93.4 240.069 93.4H254.589V97.525L251.289 100H239.629C233.689 100 230.719 97.03 230.719 91.09ZM238.309 82.455H248.099V79.32C248.099 78.1467 247.513 77.56 246.339 77.56H240.069C238.896 77.56 238.309 78.1467 238.309 79.32V82.455ZM262.951 100V74.7C264.308 72.2067 266.911 70.96 270.761 70.96H276.701L280.001 73.435V77.56H272.796C271.696 77.56 270.944 77.835 270.541 78.385V100H262.951ZM299.06 100V92.85H307.475V69.2H300.435V64.91L304.12 62.05H315.395V92.85H322.93V100H299.06Z" fill="white"/>
<path d="M611.32 69.2V62.05H642.34V69.2H630.79V100H622.87V69.2H611.32ZM647.472 66.175V58.75H655.392V66.175H647.472ZM647.637 100V70.96H655.227V100H647.637ZM662.719 91.09V79.87C662.719 73.93 665.689 70.96 671.629 70.96H678.779C684.719 70.96 687.689 73.93 687.689 79.87V88.285H670.309V91.64C670.309 92.8133 670.896 93.4 672.069 93.4H686.589V97.525L683.289 100H671.629C665.689 100 662.719 97.03 662.719 91.09ZM670.309 82.455H680.099V79.32C680.099 78.1467 679.513 77.56 678.339 77.56H672.069C670.896 77.56 670.309 78.1467 670.309 79.32V82.455ZM694.951 100V74.7C696.308 72.2067 698.911 70.96 702.761 70.96H708.701L712.001 73.435V77.56H704.796C703.696 77.56 702.944 77.835 702.541 78.385V100H694.951ZM729.52 100V87.625C729.52 82.6017 731.72 79.65 736.12 78.77L746.295 76.735C747.212 76.5517 747.67 75.9467 747.67 74.92V70.85C747.67 69.75 747.12 69.2 746.02 69.2H730.62V64.91L734.305 62.05H746.35C752.51 62.05 755.59 65.13 755.59 71.29V74.865C755.59 79.8883 753.39 82.84 748.99 83.72L738.815 85.755C737.898 85.9383 737.44 86.5433 737.44 87.57V92.85H755.59V100H729.52Z" fill="white"/>
<path d="M1043.32 69.2V62.05H1074.34V69.2H1062.79V100H1054.87V69.2H1043.32ZM1079.47 66.175V58.75H1087.39V66.175H1079.47ZM1079.64 100V70.96H1087.23V100H1079.64ZM1094.72 91.09V79.87C1094.72 73.93 1097.69 70.96 1103.63 70.96H1110.78C1116.72 70.96 1119.69 73.93 1119.69 79.87V88.285H1102.31V91.64C1102.31 92.8133 1102.9 93.4 1104.07 93.4H1118.59V97.525L1115.29 100H1103.63C1097.69 100 1094.72 97.03 1094.72 91.09ZM1102.31 82.455H1112.1V79.32C1112.1 78.1467 1111.51 77.56 1110.34 77.56H1104.07C1102.9 77.56 1102.31 78.1467 1102.31 79.32V82.455ZM1126.95 100V74.7C1128.31 72.2067 1130.91 70.96 1134.76 70.96H1140.7L1144 73.435V77.56H1136.8C1135.7 77.56 1134.94 77.835 1134.54 78.385V100H1126.95ZM1162.07 97.14V92.85H1178.02C1179.12 92.85 1179.67 92.3 1179.67 91.2V85.7C1179.67 84.6 1179.12 84.05 1178.02 84.05H1166.14V76.9H1178.02C1179.12 76.9 1179.67 76.35 1179.67 75.25V70.85C1179.67 69.75 1179.12 69.2 1178.02 69.2H1162.62V64.91L1166.31 62.05H1178.35C1184.51 62.05 1187.59 65.13 1187.59 71.29V74.81C1187.59 76.2767 1187.13 77.4683 1186.22 78.385L1184.29 80.31L1186.22 82.235C1187.13 83.1517 1187.59 84.3433 1187.59 85.81V90.76C1187.59 96.92 1184.51 100 1178.35 100H1165.76L1162.07 97.14Z" fill="white"/>
<path d="M1475.32 69.2V62.05H1506.34V69.2H1494.79V100H1486.87V69.2H1475.32ZM1511.47 66.175V58.75H1519.39V66.175H1511.47ZM1511.64 100V70.96H1519.23V100H1511.64ZM1526.72 91.09V79.87C1526.72 73.93 1529.69 70.96 1535.63 70.96H1542.78C1548.72 70.96 1551.69 73.93 1551.69 79.87V88.285H1534.31V91.64C1534.31 92.8133 1534.9 93.4 1536.07 93.4H1550.59V97.525L1547.29 100H1535.63C1529.69 100 1526.72 97.03 1526.72 91.09ZM1534.31 82.455H1544.1V79.32C1544.1 78.1467 1543.51 77.56 1542.34 77.56H1536.07C1534.9 77.56 1534.31 78.1467 1534.31 79.32V82.455ZM1558.95 100V74.7C1560.31 72.2067 1562.91 70.96 1566.76 70.96H1572.7L1576 73.435V77.56H1568.8C1567.7 77.56 1566.94 77.835 1566.54 78.385V100H1558.95ZM1593.52 94.39V87.9L1605.13 62.05H1611.84L1612.77 63.7L1602.21 87.24H1611.67V76.35H1619.59V100H1611.67V94.39H1593.52Z" fill="white"/>
<path d="M157.736 303.952V285.16H162.92V304.24C162.92 304.96 163.28 305.32 164 305.32H171.056C171.776 305.32 172.136 304.96 172.136 304.24V285.16H177.32V303.952C177.32 307.984 175.304 310 171.272 310H163.784C159.752 310 157.736 307.984 157.736 303.952ZM182.658 317.2V290.992H193.17C197.058 290.992 199.002 292.936 199.002 296.824V304.168C199.002 308.056 197.058 310 193.17 310H187.626V317.2H182.658ZM187.626 305.68H192.882C193.65 305.68 194.034 305.296 194.034 304.528V296.464C194.034 295.696 193.65 295.312 192.882 295.312H187.626V305.68ZM212.397 304.168V285.16H217.365V290.992H223.557V295.312H217.365V304.528C217.365 305.296 217.749 305.68 218.517 305.68H223.917V308.38L221.757 310H218.229C214.341 310 212.397 308.056 212.397 304.168ZM227.511 304.168V296.824C227.511 292.936 229.455 290.992 233.343 290.992H238.383C242.271 290.992 244.215 292.936 244.215 296.824V304.168C244.215 308.056 242.271 310 238.383 310H233.343C229.455 310 227.511 308.056 227.511 304.168ZM232.479 304.528C232.479 305.296 232.863 305.68 233.631 305.68H238.095C238.863 305.68 239.247 305.296 239.247 304.528V296.464C239.247 295.696 238.863 295.312 238.095 295.312H233.631C232.863 295.312 232.479 295.696 232.479 296.464V304.528ZM256.672 308.128V305.32H267.832C268.552 305.32 268.912 304.96 268.912 304.24V300.28C268.912 299.56 268.552 299.2 267.832 299.2H257.032V285.16H273.016V289.84H262.216V294.52H268.048C272.08 294.52 274.096 296.536 274.096 300.568V303.952C274.096 307.984 272.08 310 268.048 310H259.084L256.672 308.128ZM277.845 303.952V291.208C277.845 287.176 279.861 285.16 283.893 285.16H288.861C292.893 285.16 294.909 287.176 294.909 291.208V303.952C294.909 307.984 292.893 310 288.861 310H283.893C279.861 310 277.845 307.984 277.845 303.952ZM283.029 304.24C283.029 304.96 283.389 305.32 284.109 305.32H288.645C289.365 305.32 289.725 304.96 289.725 304.24V290.92C289.725 290.2 289.365 289.84 288.645 289.84H284.109C283.389 289.84 283.029 290.2 283.029 290.92V304.24ZM312.85 310C308.962 310 307.018 308.092 307.018 304.276C307.018 300.46 308.962 298.552 312.85 298.552H317.818V296.464C317.818 295.696 317.434 295.312 316.666 295.312H309.034V292.612L311.194 290.992H316.954C320.842 290.992 322.786 292.936 322.786 296.824V310H312.85ZM311.986 304.528C311.986 305.296 312.37 305.68 313.138 305.68H317.818V302.368H313.138C312.37 302.368 311.986 302.752 311.986 303.52V304.528ZM327.819 317.2V290.992H338.331C342.219 290.992 344.163 292.936 344.163 296.824V304.168C344.163 308.056 342.219 310 338.331 310H332.787V317.2H327.819ZM332.787 305.68H338.043C338.811 305.68 339.195 305.296 339.195 304.528V296.464C339.195 295.696 338.811 295.312 338.043 295.312H332.787V305.68ZM348.909 304.168V285.16H353.877V290.992H360.069V295.312H353.877V304.528C353.877 305.296 354.261 305.68 355.029 305.68H360.429V308.38L358.269 310H354.741C350.853 310 348.909 308.056 348.909 304.168ZM364.059 310V304.852H369.423V310H364.059Z" fill="white"/>
<path d="M559.736 303.952V285.16H564.92V304.24C564.92 304.96 565.28 305.32 566 305.32H573.056C573.776 305.32 574.136 304.96 574.136 304.24V285.16H579.32V303.952C579.32 307.984 577.304 310 573.272 310H565.784C561.752 310 559.736 307.984 559.736 303.952ZM584.658 317.2V290.992H595.17C599.058 290.992 601.002 292.936 601.002 296.824V304.168C601.002 308.056 599.058 310 595.17 310H589.626V317.2H584.658ZM589.626 305.68H594.882C595.65 305.68 596.034 305.296 596.034 304.528V296.464C596.034 295.696 595.65 295.312 594.882 295.312H589.626V305.68ZM614.397 304.168V285.16H619.365V290.992H625.557V295.312H619.365V304.528C619.365 305.296 619.749 305.68 620.517 305.68H625.917V308.38L623.757 310H620.229C616.341 310 614.397 308.056 614.397 304.168ZM629.511 304.168V296.824C629.511 292.936 631.455 290.992 635.343 290.992H640.383C644.271 290.992 646.215 292.936 646.215 296.824V304.168C646.215 308.056 644.271 310 640.383 310H635.343C631.455 310 629.511 308.056 629.511 304.168ZM634.479 304.528C634.479 305.296 634.863 305.68 635.631 305.68H640.095C640.863 305.68 641.247 305.296 641.247 304.528V296.464C641.247 295.696 640.863 295.312 640.095 295.312H635.631C634.863 295.312 634.479 295.696 634.479 296.464V304.528ZM660.04 310V305.32H665.548V289.84H660.94V287.032L663.352 285.16H670.732V305.32H675.664V310H660.04ZM679.845 303.952V291.208C679.845 287.176 681.861 285.16 685.893 285.16H690.861C694.893 285.16 696.909 287.176 696.909 291.208V303.952C696.909 307.984 694.893 310 690.861 310H685.893C681.861 310 679.845 307.984 679.845 303.952ZM685.029 304.24C685.029 304.96 685.389 305.32 686.109 305.32H690.645C691.365 305.32 691.725 304.96 691.725 304.24V290.92C691.725 290.2 691.365 289.84 690.645 289.84H686.109C685.389 289.84 685.029 290.2 685.029 290.92V304.24ZM700.657 303.952V291.208C700.657 287.176 702.673 285.16 706.705 285.16H711.673C715.705 285.16 717.721 287.176 717.721 291.208V303.952C717.721 307.984 715.705 310 711.673 310H706.705C702.673 310 700.657 307.984 700.657 303.952ZM705.841 304.24C705.841 304.96 706.201 305.32 706.921 305.32H711.457C712.177 305.32 712.537 304.96 712.537 304.24V290.92C712.537 290.2 712.177 289.84 711.457 289.84H706.921C706.201 289.84 705.841 290.2 705.841 290.92V304.24ZM735.662 310C731.774 310 729.83 308.092 729.83 304.276C729.83 300.46 731.774 298.552 735.662 298.552H740.63V296.464C740.63 295.696 740.246 295.312 739.478 295.312H731.846V292.612L734.006 290.992H739.766C743.654 290.992 745.598 292.936 745.598 296.824V310H735.662ZM734.798 304.528C734.798 305.296 735.182 305.68 735.95 305.68H740.63V302.368H735.95C735.182 302.368 734.798 302.752 734.798 303.52V304.528ZM750.631 317.2V290.992H761.143C765.031 290.992 766.975 292.936 766.975 296.824V304.168C766.975 308.056 765.031 310 761.143 310H755.599V317.2H750.631ZM755.599 305.68H760.855C761.623 305.68 762.007 305.296 762.007 304.528V296.464C762.007 295.696 761.623 295.312 760.855 295.312H755.599V305.68ZM771.721 304.168V285.16H776.689V290.992H782.881V295.312H776.689V304.528C776.689 305.296 777.073 305.68 777.841 305.68H783.241V308.38L781.081 310H777.553C773.665 310 771.721 308.056 771.721 304.168ZM786.871 310V304.852H792.235V310H786.871Z" fill="white"/>
<path d="M912.88 310V305.32H918.388V289.84H913.78V287.032L916.192 285.16H923.572V305.32H928.504V310H912.88ZM932.685 303.952V291.208C932.685 287.176 934.701 285.16 938.733 285.16H943.701C947.733 285.16 949.749 287.176 949.749 291.208V303.952C949.749 307.984 947.733 310 943.701 310H938.733C934.701 310 932.685 307.984 932.685 303.952ZM937.869 304.24C937.869 304.96 938.229 305.32 938.949 305.32H943.485C944.205 305.32 944.565 304.96 944.565 304.24V290.92C944.565 290.2 944.205 289.84 943.485 289.84H938.949C938.229 289.84 937.869 290.2 937.869 290.92V304.24ZM953.497 303.952V291.208C953.497 287.176 955.513 285.16 959.545 285.16H964.513C968.545 285.16 970.561 287.176 970.561 291.208V303.952C970.561 307.984 968.545 310 964.513 310H959.545C955.513 310 953.497 307.984 953.497 303.952ZM958.681 304.24C958.681 304.96 959.041 305.32 959.761 305.32H964.297C965.017 305.32 965.377 304.96 965.377 304.24V290.92C965.377 290.2 965.017 289.84 964.297 289.84H959.761C959.041 289.84 958.681 290.2 958.681 290.92V304.24ZM988.502 310C984.614 310 982.67 308.092 982.67 304.276C982.67 300.46 984.614 298.552 988.502 298.552H993.47V296.464C993.47 295.696 993.086 295.312 992.318 295.312H984.686V292.612L986.846 290.992H992.606C996.494 290.992 998.438 292.936 998.438 296.824V310H988.502ZM987.638 304.528C987.638 305.296 988.022 305.68 988.79 305.68H993.47V302.368H988.79C988.022 302.368 987.638 302.752 987.638 303.52V304.528ZM1003.47 317.2V290.992H1013.98C1017.87 290.992 1019.81 292.936 1019.81 296.824V304.168C1019.81 308.056 1017.87 310 1013.98 310H1008.44V317.2H1003.47ZM1008.44 305.68H1013.69C1014.46 305.68 1014.85 305.296 1014.85 304.528V296.464C1014.85 295.696 1014.46 295.312 1013.69 295.312H1008.44V305.68ZM1024.56 304.168V285.16H1029.53V290.992H1035.72V295.312H1029.53V304.528C1029.53 305.296 1029.91 305.68 1030.68 305.68H1036.08V308.38L1033.92 310H1030.39C1026.51 310 1024.56 308.056 1024.56 304.168ZM1039.71 310V304.852H1045.08V310H1039.71ZM1058.2 300.064V295.816H1064.21V289.48H1068.68V295.816H1074.69V300.064H1068.68V306.4H1064.21V300.064H1058.2ZM1087.37 303.952V291.208C1087.37 287.176 1089.39 285.16 1093.42 285.16H1098.39C1102.42 285.16 1104.44 287.176 1104.44 291.208V303.952C1104.44 307.984 1102.42 310 1098.39 310H1093.42C1089.39 310 1087.37 307.984 1087.37 303.952ZM1092.56 304.24C1092.56 304.96 1092.92 305.32 1093.64 305.32H1098.17C1098.89 305.32 1099.25 304.96 1099.25 304.24V290.92C1099.25 290.2 1098.89 289.84 1098.17 289.84H1093.64C1092.92 289.84 1092.56 290.2 1092.56 290.92V304.24ZM1108.65 310V304.852H1114.02V310H1108.65ZM1117.84 308.128V305.32H1129C1129.72 305.32 1130.08 304.96 1130.08 304.24V300.28C1130.08 299.56 1129.72 299.2 1129 299.2H1118.2V285.16H1134.19V289.84H1123.39V294.52H1129.22C1133.25 294.52 1135.27 296.536 1135.27 300.568V303.952C1135.27 307.984 1133.25 310 1129.22 310H1120.26L1117.84 308.128ZM1139.2 308.128V305.32H1149.64C1150.36 305.32 1150.72 304.96 1150.72 304.24V302.152C1150.72 301.456 1150.42 301.06 1149.82 300.964L1143.52 299.704C1140.64 299.152 1139.2 297.22 1139.2 293.908V292.576C1139.2 288.352 1141.08 286.24 1144.85 286.24H1145.39V281.92H1149.71V286.24H1152.77L1155.18 288.112V290.92H1145.46C1144.74 290.92 1144.38 291.28 1144.38 292V293.944C1144.38 294.616 1144.68 295.012 1145.28 295.132L1151.58 296.392C1154.46 296.992 1155.9 298.924 1155.9 302.188V303.664C1155.9 307.888 1154.02 310 1150.25 310H1149.71V314.32H1145.39V310H1141.61L1139.2 308.128ZM1169.2 317.2V290.992H1179.71C1183.6 290.992 1185.54 292.936 1185.54 296.824V304.168C1185.54 308.056 1183.6 310 1179.71 310H1174.17V317.2H1169.2ZM1174.17 305.68H1179.42C1180.19 305.68 1180.57 305.296 1180.57 304.528V296.464C1180.57 295.696 1180.19 295.312 1179.42 295.312H1174.17V305.68ZM1190.14 304.168V296.824C1190.14 292.936 1192.09 290.992 1195.98 290.992H1200.66C1204.54 290.992 1206.49 292.936 1206.49 296.824V302.332H1195.11V304.528C1195.11 305.296 1195.5 305.68 1196.26 305.68H1205.77V308.38L1203.61 310H1195.98C1192.09 310 1190.14 308.056 1190.14 304.168ZM1195.11 298.516H1201.52V296.464C1201.52 295.696 1201.14 295.312 1200.37 295.312H1196.26C1195.5 295.312 1195.11 295.696 1195.11 296.464V298.516ZM1211.24 310V293.44C1212.13 291.808 1213.83 290.992 1216.35 290.992H1220.24L1222.4 292.612V295.312H1217.68C1216.96 295.312 1216.47 295.492 1216.21 295.852V310H1211.24ZM1234.3 304.168V296.824C1234.3 292.936 1236.24 290.992 1240.13 290.992H1244.81C1248.7 290.992 1250.64 292.936 1250.64 296.824V302.332H1239.27V304.528C1239.27 305.296 1239.65 305.68 1240.42 305.68H1249.92V308.38L1247.76 310H1240.13C1236.24 310 1234.3 308.056 1234.3 304.168ZM1239.27 298.516H1245.68V296.464C1245.68 295.696 1245.29 295.312 1244.52 295.312H1240.42C1239.65 295.312 1239.27 295.696 1239.27 296.464V298.516ZM1253.96 309.172L1260.19 300.388L1254.14 291.82L1254.53 290.992H1259.11L1262.96 296.68L1266.81 290.992H1271.38L1271.78 291.82L1265.77 300.388L1271.96 309.172L1271.56 310H1266.99L1262.96 304.132L1258.93 310H1254.35L1253.96 309.172ZM1275.4 304.168V285.16H1280.37V290.992H1286.56V295.312H1280.37V304.528C1280.37 305.296 1280.75 305.68 1281.52 305.68H1286.92V308.38L1284.76 310H1281.23C1277.35 310 1275.4 308.056 1275.4 304.168ZM1290.66 310V293.44C1291.55 291.808 1293.25 290.992 1295.77 290.992H1299.66L1301.82 292.612V295.312H1297.1C1296.38 295.312 1295.89 295.492 1295.63 295.852V310H1290.66ZM1309.83 310C1305.94 310 1304 308.092 1304 304.276C1304 300.46 1305.94 298.552 1309.83 298.552H1314.8V296.464C1314.8 295.696 1314.41 295.312 1313.65 295.312H1306.01V292.612L1308.17 290.992H1313.93C1317.82 290.992 1319.77 292.936 1319.77 296.824V310H1309.83ZM1308.97 304.528C1308.97 305.296 1309.35 305.68 1310.12 305.68H1314.8V302.368H1310.12C1309.35 302.368 1308.97 302.752 1308.97 303.52V304.528Z" fill="white"/>
<path d="M1464.95 310V285.16H1470.14V294.88H1479.35V285.16H1484.54V310H1479.35V299.56H1470.14V310H1464.95ZM1489.79 304.168V296.824C1489.79 292.936 1491.74 290.992 1495.62 290.992H1500.66C1504.55 290.992 1506.5 292.936 1506.5 296.824V304.168C1506.5 308.056 1504.55 310 1500.66 310H1495.62C1491.74 310 1489.79 308.056 1489.79 304.168ZM1494.76 304.528C1494.76 305.296 1495.14 305.68 1495.91 305.68H1500.38C1501.14 305.68 1501.53 305.296 1501.53 304.528V296.464C1501.53 295.696 1501.14 295.312 1500.38 295.312H1495.91C1495.14 295.312 1494.76 295.696 1494.76 296.464V304.528ZM1511.24 304.168V285.16H1516.21V290.992H1522.4V295.312H1516.21V304.528C1516.21 305.296 1516.59 305.68 1517.36 305.68H1522.76V308.38L1520.6 310H1517.07C1513.18 310 1511.24 308.056 1511.24 304.168ZM1526.35 304.168V296.824C1526.35 292.936 1528.3 290.992 1532.19 290.992H1536.87C1540.75 290.992 1542.7 292.936 1542.7 296.824V302.332H1531.32V304.528C1531.32 305.296 1531.71 305.68 1532.47 305.68H1541.98V308.38L1539.82 310H1532.19C1528.3 310 1526.35 308.056 1526.35 304.168ZM1531.32 298.516H1537.73V296.464C1537.73 295.696 1537.35 295.312 1536.58 295.312H1532.47C1531.71 295.312 1531.32 295.696 1531.32 296.464V298.516ZM1547.45 303.088V283.36H1552.42V303.592C1552.42 305.08 1553.19 305.908 1554.72 306.076V310.36C1549.88 310.36 1547.45 307.936 1547.45 303.088ZM1567.39 303.952V291.208C1567.39 287.176 1569.4 285.16 1573.44 285.16H1583.05L1585.46 287.032V289.84H1573.65C1572.93 289.84 1572.57 290.2 1572.57 290.92V304.24C1572.57 304.96 1572.93 305.32 1573.65 305.32H1585.46V308.128L1583.05 310H1573.44C1569.4 310 1567.39 307.984 1567.39 303.952ZM1589.85 310V283.36H1594.82V290.992H1600.37C1604.25 290.992 1606.2 292.936 1606.2 296.824V310H1601.23V296.464C1601.23 295.696 1600.85 295.312 1600.08 295.312H1594.82V310H1589.85ZM1616.05 310C1612.16 310 1610.22 308.092 1610.22 304.276C1610.22 300.46 1612.16 298.552 1616.05 298.552H1621.02V296.464C1621.02 295.696 1620.64 295.312 1619.87 295.312H1612.24V292.612L1614.4 290.992H1620.16C1624.04 290.992 1625.99 292.936 1625.99 296.824V310H1616.05ZM1615.19 304.528C1615.19 305.296 1615.57 305.68 1616.34 305.68H1621.02V302.368H1616.34C1615.57 302.368 1615.19 302.752 1615.19 303.52V304.528ZM1630.91 287.86V283H1636.1V287.86H1630.91ZM1631.02 310V290.992H1635.99V310H1631.02ZM1641.18 310V290.992H1651.69C1655.58 290.992 1657.53 292.936 1657.53 296.824V310H1652.56V296.464C1652.56 295.696 1652.17 295.312 1651.41 295.312H1646.15V310H1641.18ZM1661.91 308.38V305.68H1670.19C1671 305.68 1671.41 305.224 1671.41 304.312C1671.41 303.376 1671.08 302.848 1670.4 302.728L1666.52 302.08C1663.44 301.552 1661.91 299.776 1661.91 296.752C1661.91 292.912 1663.85 290.992 1667.74 290.992H1673.32L1675.48 292.612V295.312H1668.03C1667.21 295.312 1666.8 295.768 1666.8 296.68C1666.8 297.64 1667.18 298.18 1667.92 298.3L1671.77 298.948C1674.82 299.452 1676.34 301.204 1676.34 304.204C1676.34 308.068 1674.39 310 1670.48 310H1664.07L1661.91 308.38Z" fill="white"/>
<rect x="123" y="154" width="260" height="74" rx="10" fill="#728DB5"/>
<path d="M180.28 200.92V197.8H191.88C192.68 197.8 193.08 197.4 193.08 196.6V194.28C193.08 193.507 192.747 193.067 192.08 192.96L185.08 191.56C181.88 190.947 180.28 188.8 180.28 185.12V183.64C180.28 178.947 182.373 176.6 186.56 176.6H187.16V171.8H191.96V176.6H195.36L198.04 178.68V181.8H187.24C186.44 181.8 186.04 182.2 186.04 183V185.16C186.04 185.907 186.373 186.347 187.04 186.48L194.04 187.88C197.24 188.547 198.84 190.693 198.84 194.32V195.96C198.84 200.653 196.747 203 192.56 203H191.96V207.8H187.16V203H182.96L180.28 200.92ZM204.325 203V197.8H210.445V180.6H205.325V177.48L208.005 175.4H216.205V197.8H221.685V203H204.325ZM226.33 198.92V194.2L234.77 175.4H239.65L240.33 176.6L232.65 193.72H239.53V185.8H245.29V203H239.53V198.92H226.33ZM249.855 200.92V197.8H261.455C262.255 197.8 262.655 197.4 262.655 196.6V192.6C262.655 191.8 262.255 191.4 261.455 191.4H252.815V186.2H261.455C262.255 186.2 262.655 185.8 262.655 185V181.8C262.655 181 262.255 180.6 261.455 180.6H250.255V177.48L252.935 175.4H261.695C266.175 175.4 268.415 177.64 268.415 182.12V184.68C268.415 185.747 268.082 186.613 267.415 187.28L266.015 188.68L267.415 190.08C268.082 190.747 268.415 191.613 268.415 192.68V196.28C268.415 200.76 266.175 203 261.695 203H252.535L249.855 200.92ZM273.1 203V197.28H279.06V203H273.1ZM283.713 203V194C283.713 190.347 285.313 188.2 288.513 187.56L295.913 186.08C296.579 185.947 296.913 185.507 296.913 184.76V181.8C296.913 181 296.513 180.6 295.713 180.6H284.513V177.48L287.193 175.4H295.953C300.433 175.4 302.673 177.64 302.673 182.12V184.72C302.673 188.373 301.073 190.52 297.873 191.16L290.473 192.64C289.806 192.773 289.473 193.213 289.473 193.96V197.8H302.673V203H283.713ZM306.438 200.92V197.8H318.838C319.638 197.8 320.038 197.4 320.038 196.6V192.2C320.038 191.4 319.638 191 318.838 191H306.838V175.4H324.598V180.6H312.598V185.8H319.078C323.558 185.8 325.798 188.04 325.798 192.52V196.28C325.798 200.76 323.558 203 319.078 203H309.118L306.438 200.92Z" fill="white"/>
<rect x="546" y="154" width="260" height="74" rx="10" fill="#728DB5"/>
<path d="M603.28 193.92V190.8H614.88C615.68 190.8 616.08 190.4 616.08 189.6V187.28C616.08 186.507 615.747 186.067 615.08 185.96L608.08 184.56C604.88 183.947 603.28 181.8 603.28 178.12V176.64C603.28 171.947 605.373 169.6 609.56 169.6H610.16V164.8H614.96V169.6H618.36L621.04 171.68V174.8H610.24C609.44 174.8 609.04 175.2 609.04 176V178.16C609.04 178.907 609.373 179.347 610.04 179.48L617.04 180.88C620.24 181.547 621.84 183.693 621.84 187.32V188.96C621.84 193.653 619.747 196 615.56 196H614.96V200.8H610.16V196H605.96L603.28 193.92ZM626.205 196V187C626.205 183.347 627.805 181.2 631.005 180.56L638.405 179.08C639.072 178.947 639.405 178.507 639.405 177.76V174.8C639.405 174 639.005 173.6 638.205 173.6H627.005V170.48L629.685 168.4H638.445C642.925 168.4 645.165 170.64 645.165 175.12V177.72C645.165 181.373 643.565 183.52 640.365 184.16L632.965 185.64C632.298 185.773 631.965 186.213 631.965 186.96V190.8H645.165V196H626.205ZM649.33 196V187C649.33 183.347 650.93 181.2 654.13 180.56L661.53 179.08C662.197 178.947 662.53 178.507 662.53 177.76V174.8C662.53 174 662.13 173.6 661.33 173.6H650.13V170.48L652.81 168.4H661.57C666.05 168.4 668.29 170.64 668.29 175.12V177.72C668.29 181.373 666.69 183.52 663.49 184.16L656.09 185.64C655.423 185.773 655.09 186.213 655.09 186.96V190.8H668.29V196H649.33ZM672.455 178.88V175.12C672.455 170.64 674.695 168.4 679.175 168.4H684.695C689.175 168.4 691.415 170.64 691.415 175.12V187.92C691.415 193.307 688.722 196 683.335 196H676.335L673.655 193.92V190.8H683.495C684.935 190.8 685.655 190.08 685.655 188.64V185.6H679.175C674.695 185.6 672.455 183.36 672.455 178.88ZM678.215 179.2C678.215 180 678.615 180.4 679.415 180.4H685.655V174.8C685.655 174 685.255 173.6 684.455 173.6H679.415C678.615 173.6 678.215 174 678.215 174.8V179.2ZM696.1 196V190.28H702.06V196H696.1ZM706.713 196V187C706.713 183.347 708.313 181.2 711.513 180.56L718.913 179.08C719.579 178.947 719.913 178.507 719.913 177.76V174.8C719.913 174 719.513 173.6 718.713 173.6H707.513V170.48L710.193 168.4H718.953C723.433 168.4 725.673 170.64 725.673 175.12V177.72C725.673 181.373 724.073 183.52 720.873 184.16L713.473 185.64C712.806 185.773 712.473 186.213 712.473 186.96V190.8H725.673V196H706.713ZM729.838 189.28V175.12C729.838 170.64 732.078 168.4 736.558 168.4H742.078C746.558 168.4 748.798 170.64 748.798 175.12V189.28C748.798 193.76 746.558 196 742.078 196H736.558C732.078 196 729.838 193.76 729.838 189.28ZM735.598 189.6C735.598 190.4 735.998 190.8 736.798 190.8H741.838C742.638 190.8 743.038 190.4 743.038 189.6V174.8C743.038 174 742.638 173.6 741.838 173.6H736.798C735.998 173.6 735.598 174 735.598 174.8V189.6Z" fill="white"/>
<rect x="932" y="154" width="370" height="74" rx="10" fill="#728DB5"/>
<path d="M943.28 200.92V197.8H954.88C955.68 197.8 956.08 197.4 956.08 196.6V194.28C956.08 193.507 955.747 193.067 955.08 192.96L948.08 191.56C944.88 190.947 943.28 188.8 943.28 185.12V183.64C943.28 178.947 945.373 176.6 949.56 176.6H950.16V171.8H954.96V176.6H958.36L961.04 178.68V181.8H950.24C949.44 181.8 949.04 182.2 949.04 183V185.16C949.04 185.907 949.373 186.347 950.04 186.48L957.04 187.88C960.24 188.547 961.84 190.693 961.84 194.32V195.96C961.84 200.653 959.747 203 955.56 203H954.96V207.8H950.16V203H945.96L943.28 200.92ZM966.205 203V194C966.205 190.347 967.805 188.2 971.005 187.56L978.405 186.08C979.072 185.947 979.405 185.507 979.405 184.76V181.8C979.405 181 979.005 180.6 978.205 180.6H967.005V177.48L969.685 175.4H978.445C982.925 175.4 985.165 177.64 985.165 182.12V184.72C985.165 188.373 983.565 190.52 980.365 191.16L972.965 192.64C972.298 192.773 971.965 193.213 971.965 193.96V197.8H985.165V203H966.205ZM989.33 203V194C989.33 190.347 990.93 188.2 994.13 187.56L1001.53 186.08C1002.2 185.947 1002.53 185.507 1002.53 184.76V181.8C1002.53 181 1002.13 180.6 1001.33 180.6H990.13V177.48L992.81 175.4H1001.57C1006.05 175.4 1008.29 177.64 1008.29 182.12V184.72C1008.29 188.373 1006.69 190.52 1003.49 191.16L996.09 192.64C995.423 192.773 995.09 193.213 995.09 193.96V197.8H1008.29V203H989.33ZM1012.46 185.88V182.12C1012.46 177.64 1014.7 175.4 1019.18 175.4H1024.7C1029.18 175.4 1031.42 177.64 1031.42 182.12V194.92C1031.42 200.307 1028.72 203 1023.34 203H1016.34L1013.66 200.92V197.8H1023.5C1024.94 197.8 1025.66 197.08 1025.66 195.64V192.6H1019.18C1014.7 192.6 1012.46 190.36 1012.46 185.88ZM1018.22 186.2C1018.22 187 1018.62 187.4 1019.42 187.4H1025.66V181.8C1025.66 181 1025.26 180.6 1024.46 180.6H1019.42C1018.62 180.6 1018.22 181 1018.22 181.8V186.2ZM1036.1 203V197.28H1042.06V203H1036.1ZM1046.71 203V194C1046.71 190.347 1048.31 188.2 1051.51 187.56L1058.91 186.08C1059.58 185.947 1059.91 185.507 1059.91 184.76V181.8C1059.91 181 1059.51 180.6 1058.71 180.6H1047.51V177.48L1050.19 175.4H1058.95C1063.43 175.4 1065.67 177.64 1065.67 182.12V184.72C1065.67 188.373 1064.07 190.52 1060.87 191.16L1053.47 192.64C1052.81 192.773 1052.47 193.213 1052.47 193.96V197.8H1065.67V203H1046.71ZM1069.84 196.28V182.12C1069.84 177.64 1072.08 175.4 1076.56 175.4H1082.08C1086.56 175.4 1088.8 177.64 1088.8 182.12V196.28C1088.8 200.76 1086.56 203 1082.08 203H1076.56C1072.08 203 1069.84 200.76 1069.84 196.28ZM1075.6 196.6C1075.6 197.4 1076 197.8 1076.8 197.8H1081.84C1082.64 197.8 1083.04 197.4 1083.04 196.6V181.8C1083.04 181 1082.64 180.6 1081.84 180.6H1076.8C1076 180.6 1075.6 181 1075.6 181.8V196.6ZM1102.89 191.96V187.24H1109.57V180.2H1114.53V187.24H1121.21V191.96H1114.53V199H1109.57V191.96H1102.89ZM1135.51 200.92V197.8H1147.11C1147.91 197.8 1148.31 197.4 1148.31 196.6V194.28C1148.31 193.507 1147.97 193.067 1147.31 192.96L1140.31 191.56C1137.11 190.947 1135.51 188.8 1135.51 185.12V183.64C1135.51 178.947 1137.6 176.6 1141.79 176.6H1142.39V171.8H1147.19V176.6H1150.59L1153.27 178.68V181.8H1142.47C1141.67 181.8 1141.27 182.2 1141.27 183V185.16C1141.27 185.907 1141.6 186.347 1142.27 186.48L1149.27 187.88C1152.47 188.547 1154.07 190.693 1154.07 194.32V195.96C1154.07 200.653 1151.97 203 1147.79 203H1147.19V207.8H1142.39V203H1138.19L1135.51 200.92ZM1158.43 196.28V182.12C1158.43 177.64 1160.67 175.4 1165.15 175.4H1170.67C1175.15 175.4 1177.39 177.64 1177.39 182.12V196.28C1177.39 200.76 1175.15 203 1170.67 203H1165.15C1160.67 203 1158.43 200.76 1158.43 196.28ZM1164.19 196.6C1164.19 197.4 1164.59 197.8 1165.39 197.8H1170.43C1171.23 197.8 1171.63 197.4 1171.63 196.6V181.8C1171.63 181 1171.23 180.6 1170.43 180.6H1165.39C1164.59 180.6 1164.19 181 1164.19 181.8V196.6ZM1182.08 203V197.28H1188.04V203H1182.08ZM1192.29 200.92V197.8H1204.69C1205.49 197.8 1205.89 197.4 1205.89 196.6V192.2C1205.89 191.4 1205.49 191 1204.69 191H1192.69V175.4H1210.45V180.6H1198.45V185.8H1204.93C1209.41 185.8 1211.65 188.04 1211.65 192.52V196.28C1211.65 200.76 1209.41 203 1204.93 203H1194.97L1192.29 200.92ZM1214.53 203.64L1225.73 173.08L1230.37 174.76L1219.17 205.32L1214.53 203.64ZM1238.19 203C1233.87 203 1231.71 200.88 1231.71 196.64C1231.71 192.4 1233.87 190.28 1238.19 190.28H1243.71V187.96C1243.71 187.107 1243.28 186.68 1242.43 186.68H1233.95V183.68L1236.35 181.88H1242.75C1247.07 181.88 1249.23 184.04 1249.23 188.36V203H1238.19ZM1237.23 196.92C1237.23 197.773 1237.65 198.2 1238.51 198.2H1243.71V194.52H1238.51C1237.65 194.52 1237.23 194.947 1237.23 195.8V196.92ZM1254.82 211V181.88H1266.5C1270.82 181.88 1272.98 184.04 1272.98 188.36V196.52C1272.98 200.84 1270.82 203 1266.5 203H1260.34V211H1254.82ZM1260.34 198.2H1266.18C1267.03 198.2 1267.46 197.773 1267.46 196.92V187.96C1267.46 187.107 1267.03 186.68 1266.18 186.68H1260.34V198.2ZM1278.25 196.52V175.4H1283.77V181.88H1290.65V186.68H1283.77V196.92C1283.77 197.773 1284.2 198.2 1285.05 198.2H1291.05V201.2L1288.65 203H1284.73C1280.41 203 1278.25 200.84 1278.25 196.52Z" fill="white"/>
<rect x="1376" y="154" width="389" height="74" rx="10" fill="#728DB5"/>
<path d="M1383.05 201.128V198.32H1393.49C1394.21 198.32 1394.57 197.96 1394.57 197.24V195.152C1394.57 194.456 1394.27 194.06 1393.67 193.964L1387.37 192.704C1384.49 192.152 1383.05 190.22 1383.05 186.908V185.576C1383.05 181.352 1384.94 179.24 1388.7 179.24H1389.24V174.92H1393.56V179.24H1396.62L1399.04 181.112V183.92H1389.32C1388.6 183.92 1388.24 184.28 1388.24 185V186.944C1388.24 187.616 1388.54 188.012 1389.14 188.132L1395.44 189.392C1398.32 189.992 1399.76 191.924 1399.76 195.188V196.664C1399.76 200.888 1397.87 203 1394.1 203H1393.56V207.32H1389.24V203H1385.46L1383.05 201.128ZM1403.68 203V194.9C1403.68 191.612 1405.12 189.68 1408 189.104L1414.66 187.772C1415.26 187.652 1415.56 187.256 1415.56 186.584V183.92C1415.56 183.2 1415.2 182.84 1414.48 182.84H1404.4V180.032L1406.82 178.16H1414.7C1418.73 178.16 1420.75 180.176 1420.75 184.208V186.548C1420.75 189.836 1419.31 191.768 1416.43 192.344L1409.77 193.676C1409.17 193.796 1408.87 194.192 1408.87 194.864V198.32H1420.75V203H1403.68ZM1424.14 201.128V198.32H1435.3C1436.02 198.32 1436.38 197.96 1436.38 197.24V193.28C1436.38 192.56 1436.02 192.2 1435.3 192.2H1424.5V178.16H1440.48V182.84H1429.68V187.52H1435.51C1439.55 187.52 1441.56 189.536 1441.56 193.568V196.952C1441.56 200.984 1439.55 203 1435.51 203H1426.55L1424.14 201.128ZM1445.31 196.952V184.208C1445.31 180.176 1447.33 178.16 1451.36 178.16H1456.33C1460.36 178.16 1462.37 180.176 1462.37 184.208V196.952C1462.37 200.984 1460.36 203 1456.33 203H1451.36C1447.33 203 1445.31 200.984 1445.31 196.952ZM1450.49 197.24C1450.49 197.96 1450.85 198.32 1451.57 198.32H1456.11C1456.83 198.32 1457.19 197.96 1457.19 197.24V183.92C1457.19 183.2 1456.83 182.84 1456.11 182.84H1451.57C1450.85 182.84 1450.49 183.2 1450.49 183.92V197.24ZM1475.06 193.064V188.816H1481.07V182.48H1485.53V188.816H1491.55V193.064H1485.53V199.4H1481.07V193.064H1475.06ZM1504.59 201.128V198.32H1515.03C1515.75 198.32 1516.11 197.96 1516.11 197.24V193.64C1516.11 192.92 1515.75 192.56 1515.03 192.56H1507.26V187.88H1515.03C1515.75 187.88 1516.11 187.52 1516.11 186.8V183.92C1516.11 183.2 1515.75 182.84 1515.03 182.84H1504.95V180.032L1507.36 178.16H1515.25C1519.28 178.16 1521.3 180.176 1521.3 184.208V186.512C1521.3 187.472 1521 188.252 1520.4 188.852L1519.14 190.112L1520.4 191.372C1521 191.972 1521.3 192.752 1521.3 193.712V196.952C1521.3 200.984 1519.28 203 1515.25 203H1507L1504.59 201.128ZM1524.4 188.744V182.552C1524.4 179.624 1525.86 178.16 1528.79 178.16H1530.73C1533.66 178.16 1535.12 179.624 1535.12 182.552V188.744C1535.12 191.672 1533.66 193.136 1530.73 193.136H1528.79C1525.86 193.136 1524.4 191.672 1524.4 188.744ZM1528.28 189.104C1528.28 189.44 1528.45 189.608 1528.79 189.608H1530.73C1531.07 189.608 1531.24 189.44 1531.24 189.104V182.192C1531.24 181.856 1531.07 181.688 1530.73 181.688H1528.79C1528.45 181.688 1528.28 181.856 1528.28 182.192V189.104ZM1531.31 201.56L1543.19 177.8L1546.79 179.6L1534.91 203.36L1531.31 201.56ZM1542.97 198.608V192.416C1542.97 189.488 1544.44 188.024 1547.36 188.024H1549.31C1552.24 188.024 1553.7 189.488 1553.7 192.416V198.608C1553.7 201.536 1552.24 203 1549.31 203H1547.36C1544.44 203 1542.97 201.536 1542.97 198.608ZM1546.86 198.968C1546.86 199.304 1547.03 199.472 1547.36 199.472H1549.31C1549.64 199.472 1549.81 199.304 1549.81 198.968V192.056C1549.81 191.72 1549.64 191.552 1549.31 191.552H1547.36C1547.03 191.552 1546.86 191.72 1546.86 192.056V198.968ZM1566.52 203V178.16H1572.13L1582 194.468V178.16H1587.18V203H1581.57L1571.7 186.692V203H1566.52ZM1592.45 197.168V189.824C1592.45 185.936 1594.39 183.992 1598.28 183.992H1602.96C1606.85 183.992 1608.79 185.936 1608.79 189.824V195.332H1597.42V197.528C1597.42 198.296 1597.8 198.68 1598.57 198.68H1608.07V201.38L1605.91 203H1598.28C1594.39 203 1592.45 201.056 1592.45 197.168ZM1597.42 191.516H1603.82V189.464C1603.82 188.696 1603.44 188.312 1602.67 188.312H1598.57C1597.8 188.312 1597.42 188.696 1597.42 189.464V191.516ZM1613.55 197.168V178.16H1618.51V183.992H1624.71V188.312H1618.51V197.528C1618.51 198.296 1618.9 198.68 1619.67 198.68H1625.07V201.38L1622.91 203H1619.38C1615.49 203 1613.55 201.056 1613.55 197.168ZM1637.96 203V178.16H1643.14V203H1637.96ZM1648.67 203V183.992H1659.18C1663.07 183.992 1665.01 185.936 1665.01 189.824V203H1660.05V189.464C1660.05 188.696 1659.66 188.312 1658.89 188.312H1653.64V203H1648.67ZM1669.76 197.168V189.824C1669.76 185.936 1671.7 183.992 1675.59 183.992H1682.29L1684.45 185.612V188.312H1675.88C1675.11 188.312 1674.73 188.696 1674.73 189.464V197.528C1674.73 198.296 1675.11 198.68 1675.88 198.68H1684.45V201.38L1682.29 203H1675.59C1671.7 203 1669.76 201.056 1669.76 197.168ZM1688.39 197.168V189.824C1688.39 185.936 1690.33 183.992 1694.22 183.992H1699.26C1703.15 183.992 1705.09 185.936 1705.09 189.824V197.168C1705.09 201.056 1703.15 203 1699.26 203H1694.22C1690.33 203 1688.39 201.056 1688.39 197.168ZM1693.36 197.528C1693.36 198.296 1693.74 198.68 1694.51 198.68H1698.97C1699.74 198.68 1700.13 198.296 1700.13 197.528V189.464C1700.13 188.696 1699.74 188.312 1698.97 188.312H1694.51C1693.74 188.312 1693.36 188.696 1693.36 189.464V197.528ZM1709.98 203V183.992H1731.65C1735.54 183.992 1737.49 185.936 1737.49 189.824V203H1732.52V189.464C1732.52 188.696 1732.13 188.312 1731.37 188.312H1726.22V203H1721.25V188.312H1714.95V203H1709.98ZM1742.25 197.168V189.824C1742.25 185.936 1744.19 183.992 1748.08 183.992H1752.76C1756.65 183.992 1758.59 185.936 1758.59 189.824V195.332H1747.22V197.528C1747.22 198.296 1747.6 198.68 1748.37 198.68H1757.87V201.38L1755.71 203H1748.08C1744.19 203 1742.25 201.056 1742.25 197.168ZM1747.22 191.516H1753.63V189.464C1753.63 188.696 1753.24 188.312 1752.47 188.312H1748.37C1747.6 188.312 1747.22 188.696 1747.22 189.464V191.516Z" fill="white"/>
<defs>
<linearGradient id="paint0_linear_408_696" x1="0" y1="85" x2="527.5" y2="85" gradientUnits="userSpaceOnUse">
<stop stop-color="#363636"/>
<stop offset="1" stop-color="#6D9EEB"/>
</linearGradient>
<linearGradient id="paint1_linear_408_696" x1="422" y1="85" x2="949" y2="85" gradientUnits="userSpaceOnUse">
<stop stop-color="#0D1117"/>
<stop offset="1" stop-color="#6D9EEB"/>
</linearGradient>
<linearGradient id="paint2_linear_408_696" x1="0" y1="85" x2="527.5" y2="85" gradientUnits="userSpaceOnUse">
<stop stop-color="#0D1117"/>
<stop offset="1" stop-color="#6D9EEB"/>
</linearGradient>
<linearGradient id="paint3_linear_408_696" x1="842" y1="85" x2="1369" y2="85" gradientUnits="userSpaceOnUse">
<stop stop-color="#0D1117"/>
<stop offset="1" stop-color="#6D9EEB"/>
</linearGradient>
<linearGradient id="paint4_linear_408_696" x1="1262" y1="85" x2="1789" y2="85" gradientUnits="userSpaceOnUse">
<stop stop-color="#0D1117"/>
<stop offset="1" stop-color="#6D9EEB"/>
</linearGradient>
</defs>
</svg>
