<svg width="205" height="205" viewBox="0 0 205 205" fill="none" xmlns="http://www.w3.org/2000/svg">
<path d="M167.892 9.69298C167.892 4.2848 163.718 0 158.31 0H46.5009C41.0883 0 37.1055 4.2848 37.1055 9.69298V205H79.767V172.733C79.767 169.558 82.0626 166.965 85.224 166.965H119.729C122.895 166.965 125.226 169.558 125.226 172.733V205H167.883V9.69298H167.892ZM94.6106 138.574C94.6106 140.426 93.1143 141.927 91.2583 141.927H71.0597C69.2126 141.927 67.7074 140.426 67.7074 138.574V118.376C67.7074 116.524 69.2126 115.019 71.0597 115.019H91.2583C93.1143 115.019 94.6106 116.524 94.6106 118.376V138.574ZM94.6106 94.0436C94.6106 95.8952 93.1143 97.396 91.2583 97.396H71.0597C69.2126 97.396 67.7074 95.8952 67.7074 94.0436V73.8451C67.7074 71.9936 69.2126 70.4928 71.0597 70.4928H91.2583C93.1143 70.4928 94.6106 71.9936 94.6106 73.8451V94.0436ZM94.6106 48.5936C94.6106 50.4452 93.1143 51.946 91.2583 51.946H71.0597C69.2126 51.946 67.7074 50.4452 67.7074 48.5936V28.3951C67.7074 26.5436 69.2126 25.0428 71.0597 25.0428H91.2583C93.1143 25.0428 94.6106 26.5436 94.6106 28.3951V48.5936ZM137.285 138.574C137.285 140.426 135.776 141.927 133.929 141.927H113.73C111.874 141.927 110.378 140.426 110.378 138.574V118.376C110.378 116.524 111.874 115.019 113.73 115.019H133.929C135.776 115.019 137.285 116.524 137.285 118.376V138.574ZM137.285 94.0436C137.285 95.8952 135.776 97.396 133.929 97.396H113.73C111.874 97.396 110.378 95.8952 110.378 94.0436V73.8451C110.378 71.9936 111.874 70.4928 113.73 70.4928H133.929C135.776 70.4928 137.285 71.9936 137.285 73.8451V94.0436ZM137.285 48.5936C137.285 50.4452 135.776 51.946 133.929 51.946H113.73C111.874 51.946 110.378 50.4452 110.378 48.5936V28.3951C110.378 26.5436 111.874 25.0428 113.73 25.0428H133.929C135.776 25.0428 137.285 26.5436 137.285 28.3951V48.5936Z" fill="#407BFF"/>
</svg>
